<svg width="30" height="36" viewBox="0 0 30 36" fill="none" xmlns="http://www.w3.org/2000/svg">
<path d="M26.7641 0.292969H0.294189V31.4219H26.7641V0.292969Z" fill="white"/>
<path d="M0.294175 0C0.129437 0 0 0.128801 0 0.292731V31.4217C0 31.5856 0.129437 31.7144 0.294175 31.7144H26.7641C26.9288 31.7144 27.0582 31.5856 27.0582 31.4217V0.292731C27.0582 0.128801 26.9288 0 26.7641 0H0.294175ZM26.4699 0.585461C26.4699 1.15336 26.4699 30.5552 26.4699 31.129C25.8992 31.129 1.15317 31.129 0.588351 31.129C0.588351 30.5552 0.588351 1.15336 0.588351 0.585461C1.15905 0.585461 25.9051 0.585461 26.4699 0.585461Z" fill="black"/>
<path d="M29.7057 3.02686H3.23584V34.1558H29.7057V3.02686Z" fill="white"/>
<path d="M3.23607 2.73389C3.07133 2.73389 2.94189 2.86269 2.94189 3.02662V34.1556C2.94189 34.3195 3.07133 34.4483 3.23607 34.4483H29.706C29.8707 34.4483 30.0001 34.3195 30.0001 34.1556V3.02662C30.0001 2.86269 29.8707 2.73389 29.706 2.73389H3.23607ZM29.4118 3.31935C29.4118 3.88724 29.4118 33.2891 29.4118 33.8628C28.8411 33.8628 4.09506 33.8628 3.53025 33.8628C3.53025 33.2891 3.53025 3.88724 3.53025 3.31935C4.10095 3.31935 28.847 3.31935 29.4118 3.31935Z" fill="black"/>
<path d="M15.3618 5.02344H4.77734V12.4237V13.2726V16.0477V18.8228V21.8086H27.6759V18.8228V16.0477V13.2726V10.5034V7.72827V5.02344H15.3618Z" fill="white"/>
<path d="M15.3618 4.73047H4.77733C4.61259 4.73047 4.48315 4.85927 4.48315 5.0232V21.8084C4.48315 21.9723 4.61259 22.1011 4.77733 22.1011H27.6818C27.8466 22.1011 27.976 21.9723 27.976 21.8084V5.0232C27.976 4.85927 27.8466 4.73047 27.6818 4.73047H15.3618ZM15.3618 5.31593C15.3618 5.31593 26.8228 5.31593 27.3876 5.31593C27.3876 5.77844 27.3876 21.0356 27.3876 21.5156C26.8228 21.5156 5.6422 21.5156 5.0715 21.5156C5.0715 21.0414 5.0715 5.86041 5.0715 5.31593C5.62455 5.31593 15.3618 5.31593 15.3618 5.31593Z" fill="black"/>
<path d="M9.38421 8.0498L10.2844 9.85888L12.2848 10.1458L10.8374 11.5567L11.1787 13.5414L9.38421 12.6047L7.59562 13.5414L7.93687 11.5567L6.48364 10.1458L8.48992 9.85888L9.38421 8.0498Z" fill="white"/>
<path d="M9.38415 7.8335C9.30178 7.8335 9.2253 7.88033 9.18411 7.95644C9.18411 7.95644 8.43102 9.47864 8.33689 9.66014C8.13096 9.68941 6.44828 9.9353 6.44828 9.9353C6.36591 9.94701 6.29531 10.0056 6.27178 10.0875C6.26589 10.1109 6.26001 10.1344 6.26001 10.1578C6.26001 10.2163 6.28354 10.2749 6.32473 10.3159C6.32473 10.3159 7.54261 11.4985 7.6897 11.6448C7.6544 11.8498 7.36611 13.5183 7.36611 13.5183C7.36611 13.53 7.36023 13.5417 7.36023 13.5535C7.36023 13.6237 7.39553 13.6881 7.44848 13.7291C7.51908 13.7759 7.60733 13.7876 7.68382 13.7467C7.68382 13.7467 9.19 12.9563 9.37238 12.8626C9.55477 12.9563 11.0609 13.7467 11.0609 13.7467C11.1374 13.7876 11.2257 13.7818 11.2963 13.7291C11.3551 13.6881 11.3845 13.6237 11.3845 13.5535C11.3845 13.5417 11.3845 13.53 11.3787 13.5183C11.3787 13.5183 11.0904 11.8498 11.0551 11.6448C11.2022 11.5043 12.42 10.3159 12.42 10.3159C12.4612 10.2749 12.4848 10.2163 12.4848 10.1578C12.4848 10.1344 12.4789 10.1109 12.473 10.0875C12.4495 10.0056 12.3789 9.95287 12.2965 9.9353C12.2965 9.9353 10.6138 9.68941 10.4079 9.66014C10.3137 9.47864 9.56066 7.95644 9.56066 7.95644C9.54301 7.88033 9.46652 7.8335 9.38415 7.8335ZM8.51928 10.0758C8.58988 10.0641 8.6546 10.0231 8.68401 9.95287C8.68401 9.95287 9.14293 9.02784 9.38415 8.5419C9.62537 9.02784 10.0843 9.95287 10.0843 9.95287C10.1137 10.0173 10.1784 10.0641 10.249 10.0758C10.249 10.0758 11.2728 10.2222 11.8082 10.3041C11.4198 10.6788 10.6785 11.399 10.6785 11.399C10.6373 11.4399 10.6138 11.4985 10.6138 11.557C10.6138 11.5687 10.6138 11.5804 10.6197 11.5922C10.6197 11.5922 10.7962 12.6109 10.8844 13.1436C10.402 12.8919 9.48417 12.4118 9.48417 12.4118C9.41945 12.3767 9.34297 12.3767 9.27825 12.4118C9.27825 12.4118 8.36042 12.8919 7.88386 13.1436C7.97799 12.6109 8.14861 11.5922 8.14861 11.5922C8.14861 11.5804 8.1545 11.5687 8.1545 11.557C8.1545 11.4985 8.13096 11.4399 8.08978 11.399C8.08978 11.399 7.34846 10.6788 6.96015 10.3041C7.49555 10.2222 8.51928 10.0758 8.51928 10.0758Z" fill="black"/>
<path d="M13.5909 6.23535L13.9322 6.92034L14.6852 7.02572L14.1381 7.55849L14.2675 8.30788L13.5909 7.95661L12.9143 8.30788L13.0437 7.55849L12.4966 7.02572L13.2556 6.92034L13.5909 6.23535Z" fill="white"/>
<path d="M13.3967 6.13564C13.3967 6.13564 13.1849 6.56888 13.1084 6.71525C12.9436 6.73867 12.4671 6.80892 12.4671 6.80892C12.3847 6.82063 12.3141 6.87918 12.2906 6.96114C12.2847 6.98456 12.2788 7.00798 12.2788 7.0314C12.2788 7.08994 12.3023 7.14849 12.3435 7.18947C12.3435 7.18947 12.6907 7.52319 12.8083 7.64028C12.7789 7.80421 12.6965 8.27843 12.6965 8.27843C12.6965 8.29014 12.6965 8.30185 12.6965 8.31356C12.6965 8.38381 12.7318 8.44821 12.7848 8.4892C12.8554 8.53603 12.9436 8.54189 13.0201 8.50676C13.0201 8.50676 13.4437 8.28428 13.5967 8.20817C13.7438 8.28428 14.1733 8.50676 14.1733 8.50676C14.2498 8.54774 14.338 8.54189 14.4086 8.4892C14.4675 8.44821 14.4969 8.38381 14.4969 8.31356C14.4969 8.30185 14.4969 8.29014 14.491 8.27843C14.491 8.27843 14.4086 7.80421 14.3792 7.64028C14.4969 7.52319 14.844 7.18947 14.844 7.18947C14.8852 7.14849 14.9087 7.08994 14.9087 7.0314C14.9087 7.00798 14.9029 6.98456 14.897 6.96114C14.8734 6.87918 14.8028 6.82649 14.7205 6.80892C14.7205 6.80892 14.2439 6.73867 14.0792 6.71525C14.0027 6.56888 13.7909 6.13564 13.7909 6.13564C13.7556 6.05953 13.6791 6.0127 13.5908 6.0127C13.5085 6.01855 13.432 6.06539 13.3967 6.13564ZM13.2849 7.13678C13.3555 7.12507 13.4202 7.08409 13.4496 7.01383C13.4496 7.01383 13.5202 6.86747 13.5908 6.72696C13.6614 6.86747 13.732 7.01383 13.732 7.01383C13.7615 7.07823 13.8262 7.12507 13.8968 7.13678C13.8968 7.13678 14.0556 7.1602 14.2145 7.18362C14.1027 7.289 13.985 7.40609 13.985 7.40609C13.9438 7.44707 13.9203 7.50562 13.9203 7.56417C13.9203 7.57588 13.9203 7.58759 13.9262 7.59929C13.9262 7.59929 13.9556 7.75737 13.9791 7.90959C13.8438 7.83933 13.6967 7.76322 13.6967 7.76322C13.632 7.7281 13.5555 7.7281 13.4908 7.76322C13.4908 7.76322 13.3437 7.83933 13.2084 7.90959C13.2319 7.75737 13.2614 7.59929 13.2614 7.59929C13.2614 7.58759 13.2614 7.57588 13.2614 7.56417C13.2614 7.50562 13.2378 7.44707 13.1966 7.40609C13.1966 7.40609 13.079 7.29486 12.9672 7.18362C13.1202 7.1602 13.2849 7.13678 13.2849 7.13678Z" fill="black"/>
<path d="M13.5909 13.7119L13.9322 14.3969L14.6852 14.5023L14.1381 15.0351L14.2675 15.7844L13.5909 15.4332L12.9143 15.7844L13.0437 15.0351L12.4966 14.5023L13.2556 14.3969L13.5909 13.7119Z" fill="white"/>
<path d="M13.3967 13.6122C13.3967 13.6122 13.1849 14.0454 13.1084 14.1918C12.9436 14.2152 12.4671 14.2855 12.4671 14.2855C12.3847 14.2972 12.3141 14.3557 12.2906 14.4377C12.2847 14.4611 12.2788 14.4845 12.2788 14.508C12.2788 14.5665 12.3023 14.6251 12.3435 14.666C12.3435 14.666 12.6907 14.9997 12.8083 15.1168C12.7789 15.2808 12.6965 15.755 12.6965 15.755C12.6965 15.7667 12.6965 15.7784 12.6965 15.7901C12.6965 15.8604 12.7318 15.9248 12.7848 15.9658C12.8554 16.0126 12.9436 16.0185 13.0201 15.9833C13.0201 15.9833 13.4437 15.7608 13.5967 15.6847C13.7438 15.7608 14.1733 15.9833 14.1733 15.9833C14.2498 16.0243 14.338 16.0185 14.4086 15.9658C14.4675 15.9248 14.4969 15.8604 14.4969 15.7901C14.4969 15.7784 14.4969 15.7667 14.491 15.755C14.491 15.755 14.4086 15.2808 14.3792 15.1168C14.4969 14.9997 14.844 14.666 14.844 14.666C14.8852 14.6251 14.9087 14.5665 14.9087 14.508C14.9087 14.4845 14.9029 14.4611 14.897 14.4377C14.8734 14.3557 14.8028 14.303 14.7205 14.2855C14.7205 14.2855 14.2439 14.2152 14.0792 14.1918C14.0027 14.0454 13.7909 13.6122 13.7909 13.6122C13.7556 13.5361 13.6791 13.4893 13.5908 13.4893C13.5085 13.4951 13.432 13.5419 13.3967 13.6122ZM13.2849 14.6133C13.3555 14.6016 13.4202 14.5607 13.4496 14.4904C13.4496 14.4904 13.5202 14.344 13.5908 14.2035C13.6614 14.344 13.732 14.4904 13.732 14.4904C13.7615 14.5548 13.8262 14.6016 13.8968 14.6133C13.8968 14.6133 14.0556 14.6368 14.2145 14.6602C14.1027 14.7656 13.985 14.8827 13.985 14.8827C13.9438 14.9236 13.9203 14.9822 13.9203 15.0407C13.9203 15.0524 13.9203 15.0641 13.9262 15.0759C13.9262 15.0759 13.9556 15.2339 13.9791 15.3862C13.8438 15.3159 13.6967 15.2398 13.6967 15.2398C13.632 15.2047 13.5555 15.2047 13.4908 15.2398C13.4908 15.2398 13.3437 15.3159 13.2084 15.3862C13.2319 15.2339 13.2614 15.0759 13.2614 15.0759C13.2614 15.0641 13.2614 15.0524 13.2614 15.0407C13.2614 14.9822 13.2378 14.9236 13.1966 14.8827C13.1966 14.8827 13.079 14.7714 12.9672 14.6602C13.1202 14.6368 13.2849 14.6133 13.2849 14.6133Z" fill="black"/>
<path d="M15.097 8.90527L15.4324 9.59026L16.1914 9.69564L15.6442 10.2284L15.7736 10.9778L15.097 10.6265L14.4204 10.9778L14.544 10.2284L13.9968 9.69564L14.7558 9.59026L15.097 8.90527Z" fill="white"/>
<path d="M14.8969 8.80556C14.8969 8.80556 14.6851 9.23881 14.6086 9.38517C14.4439 9.40859 13.9673 9.47884 13.9673 9.47884C13.885 9.49055 13.8144 9.5491 13.7908 9.63106C13.7849 9.65448 13.7791 9.6779 13.7791 9.70132C13.7791 9.75986 13.8026 9.81841 13.8438 9.85939C13.8438 9.85939 14.1909 10.1931 14.3086 10.3102C14.2791 10.4741 14.1968 10.9484 14.1968 10.9484C14.1968 10.9601 14.1968 10.9718 14.1968 10.9835C14.1968 11.0537 14.2321 11.1181 14.285 11.1591C14.3556 11.206 14.4439 11.2118 14.5204 11.1767C14.5204 11.1767 14.944 10.9542 15.097 10.8781C15.244 10.9542 15.6735 11.1767 15.6735 11.1767C15.75 11.2177 15.8383 11.2118 15.9089 11.1591C15.9677 11.1181 15.9971 11.0537 15.9971 10.9835C15.9971 10.9718 15.9971 10.9601 15.9912 10.9484C15.9912 10.9484 15.9089 10.4741 15.8795 10.3102C15.9971 10.1931 16.3443 9.85939 16.3443 9.85939C16.3854 9.81841 16.409 9.75986 16.409 9.70132C16.409 9.6779 16.4031 9.65448 16.3972 9.63106C16.3737 9.5491 16.3031 9.49641 16.2207 9.47884C16.2207 9.47884 15.7441 9.40859 15.5794 9.38517C15.5029 9.23881 15.2911 8.80556 15.2911 8.80556C15.2558 8.72945 15.1793 8.68262 15.0911 8.68262C15.0087 8.68847 14.9322 8.73531 14.8969 8.80556ZM14.7851 9.8067C14.8557 9.79499 14.9205 9.75401 14.9499 9.68376C14.9499 9.68376 15.0205 9.53739 15.0911 9.39688C15.1617 9.53739 15.2323 9.68376 15.2323 9.68376C15.2617 9.74816 15.3264 9.79499 15.397 9.8067C15.397 9.8067 15.5559 9.83012 15.7147 9.85354C15.6029 9.95892 15.4853 10.076 15.4853 10.076C15.4441 10.117 15.4205 10.1755 15.4205 10.2341C15.4205 10.2458 15.4205 10.2575 15.4264 10.2692C15.4264 10.2692 15.4558 10.4273 15.4794 10.5795C15.3441 10.5093 15.197 10.4331 15.197 10.4331C15.1323 10.398 15.0558 10.398 14.9911 10.4331C14.9911 10.4331 14.844 10.5093 14.7086 10.5795C14.7322 10.4273 14.7616 10.2692 14.7616 10.2692C14.7616 10.2575 14.7616 10.2458 14.7616 10.2341C14.7616 10.1755 14.7381 10.117 14.6969 10.076C14.6969 10.076 14.5792 9.96478 14.4674 9.85354C14.6263 9.83012 14.7851 9.8067 14.7851 9.8067Z" fill="black"/>
<path d="M15.097 11.4688L15.4324 12.1537L16.1914 12.2591L15.6442 12.7919L15.7736 13.5413L15.097 13.19L14.4204 13.5413L14.544 12.7919L13.9968 12.2591L14.7558 12.1537L15.097 11.4688Z" fill="white"/>
<path d="M14.8969 11.37C14.8969 11.37 14.6851 11.8033 14.6086 11.9496C14.4439 11.973 13.9673 12.0433 13.9673 12.0433C13.885 12.055 13.8144 12.1136 13.7908 12.1955C13.7849 12.2189 13.7791 12.2424 13.7791 12.2658C13.7791 12.3243 13.8026 12.3829 13.8438 12.4238C13.8438 12.4238 14.1909 12.7576 14.3086 12.8747C14.2791 13.0386 14.1968 13.5128 14.1968 13.5128C14.1968 13.5245 14.1968 13.5362 14.1968 13.5479C14.1968 13.6182 14.2321 13.6826 14.285 13.7236C14.3556 13.7704 14.4439 13.7763 14.5204 13.7411C14.5204 13.7411 14.944 13.5187 15.097 13.4425C15.244 13.5187 15.6735 13.7411 15.6735 13.7411C15.75 13.7821 15.8383 13.7763 15.9089 13.7236C15.9677 13.6826 15.9971 13.6182 15.9971 13.5479C15.9971 13.5362 15.9971 13.5245 15.9912 13.5128C15.9912 13.5128 15.9089 13.0386 15.8795 12.8747C15.9971 12.7576 16.3443 12.4238 16.3443 12.4238C16.3854 12.3829 16.409 12.3243 16.409 12.2658C16.409 12.2424 16.4031 12.2189 16.3972 12.1955C16.3737 12.1136 16.3031 12.0609 16.2207 12.0433C16.2207 12.0433 15.7441 11.973 15.5794 11.9496C15.5029 11.8033 15.2911 11.37 15.2911 11.37C15.2558 11.2939 15.1793 11.2471 15.0911 11.2471C15.0087 11.2471 14.9322 11.2998 14.8969 11.37ZM14.7851 12.3712C14.8557 12.3594 14.9205 12.3185 14.9499 12.2541C14.9499 12.2541 15.0205 12.1077 15.0911 11.9672C15.1617 12.1077 15.2323 12.2541 15.2323 12.2541C15.2617 12.3185 15.3264 12.3653 15.397 12.3712C15.397 12.3712 15.5618 12.3946 15.7147 12.418C15.6029 12.5234 15.4853 12.6405 15.4853 12.6405C15.4441 12.6815 15.4205 12.74 15.4205 12.7985C15.4205 12.8103 15.4205 12.822 15.4264 12.8337C15.4264 12.8337 15.4558 12.9917 15.4794 13.144C15.3441 13.0737 15.197 12.9976 15.197 12.9976C15.1323 12.9625 15.0558 12.9625 14.9911 12.9976C14.9911 12.9976 14.844 13.0737 14.7086 13.144C14.7322 12.9917 14.7616 12.8337 14.7616 12.8337C14.7616 12.822 14.7616 12.8103 14.7616 12.7985C14.7616 12.74 14.7381 12.6815 14.6969 12.6405C14.6969 12.6405 14.5792 12.5292 14.4674 12.418C14.6263 12.3946 14.7851 12.3712 14.7851 12.3712Z" fill="black"/>
<path d="M4.95384 24.8818C4.78911 24.8818 4.65967 25.0106 4.65967 25.1746C4.65967 25.3385 4.78911 25.4673 4.95384 25.4673H27.4583C27.623 25.4673 27.7524 25.3385 27.7524 25.1746C27.7524 25.0106 27.623 24.8818 27.4583 24.8818H4.95384Z" fill="black"/>
<path d="M4.95384 28.1025C4.78911 28.1025 4.65967 28.2313 4.65967 28.3953C4.65967 28.5592 4.78911 28.688 4.95384 28.688H27.4583C27.623 28.688 27.7524 28.5592 27.7524 28.3953C27.7524 28.2313 27.623 28.1025 27.4583 28.1025H4.95384Z" fill="black"/>
<path d="M4.95384 31.3223C4.78911 31.3223 4.65967 31.4511 4.65967 31.615C4.65967 31.7789 4.78911 31.9077 4.95384 31.9077H27.4583C27.623 31.9077 27.7524 31.7789 27.7524 31.615C27.7524 31.4511 27.623 31.3223 27.4583 31.3223H4.95384Z" fill="black"/>
<path d="M22.0898 22.9576L20.2437 23.9297L22.5358 28.2404L24.382 27.2683L22.0898 22.9576Z" fill="white"/>
<path d="M21.9515 22.6986L20.1041 23.6705C19.9629 23.7466 19.904 23.9222 19.9805 24.0686L22.2751 28.3776C22.3516 28.5181 22.5281 28.5766 22.6752 28.5005L24.5226 27.5287C24.5932 27.4935 24.6461 27.4291 24.6638 27.3589C24.6873 27.2828 24.6814 27.2067 24.6402 27.1364L22.3457 22.8216C22.3104 22.7513 22.2457 22.6986 22.1751 22.681C22.1045 22.6576 22.0221 22.6635 21.9515 22.6986ZM21.9691 23.3543C22.1986 23.7817 23.7577 26.7207 23.9872 27.1481C23.6636 27.3179 22.9811 27.6809 22.6575 27.8448C22.428 27.4174 20.8689 24.4784 20.6395 24.051C20.9631 23.8871 21.6455 23.5241 21.9691 23.3543Z" fill="black"/>
<path d="M24.6343 14.1094C26.5582 17.7276 25.1756 22.218 21.5337 24.1325C17.8977 26.047 13.3851 24.6653 11.4611 21.0471C9.53724 17.429 10.9258 12.9385 14.5618 11.024C18.1978 9.10958 22.7104 10.4913 24.6343 14.1094Z" fill="white"/>
<path d="M14.4205 10.7667C10.6433 12.7573 9.20186 17.4293 11.1964 21.1879C13.1968 24.9466 17.8918 26.381 21.669 24.3963C23.4988 23.4303 24.8402 21.8202 25.4462 19.8531C25.6757 19.1037 25.7934 18.3368 25.7934 17.5757C25.7934 16.3345 25.4874 15.105 24.8873 13.9809C23.9224 12.1601 22.2985 10.8253 20.3217 10.2223C18.3507 9.60753 16.2503 9.80658 14.4205 10.7667ZM11.72 20.9128C9.87258 17.441 11.2081 13.1203 14.6971 11.2819C16.3856 10.392 18.3272 10.2106 20.1511 10.7667C21.9808 11.3288 23.4753 12.5583 24.3695 14.2444C25.2638 15.9247 25.4462 17.8567 24.8873 19.6716C24.3225 21.4924 23.0869 22.9795 21.3925 23.8694C17.9095 25.7136 13.5674 24.3846 11.72 20.9128Z" fill="black"/>
<path d="M22.6572 15.152C24.0045 17.687 23.0337 20.8251 20.4862 22.1717C17.9386 23.5124 14.7851 22.5463 13.4319 20.0113C12.0845 17.4763 13.0553 14.3382 15.6029 12.9975C18.1504 11.6509 21.3099 12.6169 22.6572 15.152Z" fill="white"/>
<path d="M15.4678 12.7339C12.785 14.1508 11.7553 17.4762 13.1733 20.1459C14.5971 22.8156 17.9389 23.8401 20.6218 22.4292C22.4869 21.4456 23.5518 19.5429 23.5518 17.5757C23.5518 16.7092 23.3458 15.8369 22.9105 15.0172C22.2221 13.7234 21.0689 12.7749 19.6628 12.3417C18.2625 11.9084 16.7681 12.049 15.4678 12.7339ZM13.6969 19.8707C12.4261 17.482 13.3439 14.5137 15.7444 13.2491C16.9093 12.6344 18.239 12.5115 19.498 12.8979C20.7571 13.2843 21.7867 14.1332 22.3986 15.2866C23.6694 17.6752 22.7516 20.6435 20.3511 21.9081C17.9507 23.1727 14.9677 22.2594 13.6969 19.8707Z" fill="black"/>
<path d="M28.6587 32.9439C29.0176 33.6231 28.7822 34.4486 28.1291 34.794L26.6818 35.5551C26.0287 35.9005 25.205 35.6312 24.8462 34.9521L21.6573 28.9569C21.2984 28.2778 21.5337 27.4523 22.1868 27.1069L23.6341 26.3458C24.2872 26.0004 25.1109 26.2697 25.4698 26.9488L28.6587 32.9439Z" fill="black"/>
<path d="M23.4989 26.0828L22.0515 26.8439C21.675 27.043 21.3985 27.3767 21.269 27.7924C21.1337 28.2256 21.1808 28.6881 21.3985 29.0921L24.5873 35.0872C24.805 35.4912 25.1639 35.7898 25.5934 35.9244C26.0052 36.0532 26.4406 36.0122 26.8172 35.8132L28.2645 35.0521C29.0588 34.6305 29.353 33.6236 28.9176 32.8039L25.7287 26.8088C25.2933 25.9891 24.2931 25.6671 23.4989 26.0828ZM25.7699 35.3682C25.4875 35.2804 25.2522 35.0872 25.111 34.8179L21.9221 28.8228C21.7809 28.5535 21.7515 28.249 21.8338 27.968C21.9162 27.7045 22.0927 27.4938 22.3281 27.365L23.7754 26.6039C24.2814 26.3346 24.9286 26.5512 25.211 27.084L28.3998 33.0791C28.6822 33.6118 28.4999 34.2676 27.9939 34.531L26.5465 35.2921C26.3053 35.4209 26.0347 35.4443 25.7699 35.3682Z" fill="black"/>
</svg>
