<svg width="73" height="61" viewBox="0 0 73 61" fill="none" xmlns="http://www.w3.org/2000/svg">
<g clip-path="url(#clip0)">
<path d="M22.4101 40.1899H19.0801V60.1899H22.4101V40.1899Z" fill="white"/>
<path d="M22.4201 39.6899H18.5901V60.6899H22.9201V39.6899H22.4201ZM21.9201 40.6899C21.9201 41.6199 21.9201 58.7599 21.9201 59.6899C21.3301 59.6899 20.1801 59.6899 19.5901 59.6899C19.5901 58.7599 19.5901 41.6199 19.5901 40.6899C20.1801 40.6899 21.3201 40.6899 21.9201 40.6899Z" fill="#040000"/>
<path d="M39.5899 17.1899H1.91992V44.8599H39.5899V17.1899Z" fill="white"/>
<path d="M39.5799 16.6899H1.41992V45.3599H40.0899V16.6899H39.5799ZM39.0799 17.6899C39.0799 18.6399 39.0799 43.4099 39.0799 44.3599C38.1199 44.3599 3.36992 44.3599 2.40992 44.3599C2.40992 43.4099 2.40992 18.6399 2.40992 17.6899C3.37992 17.6899 38.1199 17.6899 39.0799 17.6899Z" fill="#040000"/>
<path d="M34.51 22.52L27.54 22.99L29.52 25.18L18.71 32.92L16.47 30.37L5.25 39.05L6.9 41.15L15.57 34.56L17.52 36.96L31.18 27.03L33.17 29.23L34.51 22.52Z" fill="white"/>
<path d="M34.47 22.0201L27.5 22.4901C27.31 22.5001 27.14 22.6201 27.07 22.8001C27.05 22.8601 27.03 22.9201 27.03 22.9901C27.03 23.1101 27.07 23.2301 27.16 23.3201C27.16 23.3201 28.27 24.5501 28.77 25.1001C27.96 25.6801 19.44 31.7801 18.79 32.2501C18.34 31.7401 16.84 30.0501 16.84 30.0501C16.67 29.8501 16.37 29.8201 16.16 29.9801L4.93997 38.6601C4.82997 38.7401 4.76997 38.8601 4.74997 38.9901C4.72997 39.1201 4.76997 39.2601 4.84997 39.3601L6.49997 41.4501C6.66997 41.6601 6.97997 41.7001 7.19997 41.5401C7.19997 41.5401 14.79 35.7801 15.49 35.2501C15.92 35.7801 17.13 37.2701 17.13 37.2701C17.3 37.4801 17.6 37.5201 17.81 37.3601C17.81 37.3601 30.43 28.2001 31.11 27.7001C31.54 28.1801 32.8 29.5701 32.8 29.5701C32.93 29.7101 33.12 29.7701 33.3 29.7201C33.48 29.6701 33.62 29.5201 33.66 29.3401L35 22.6201C35.03 22.4701 34.99 22.3101 34.89 22.1901C34.78 22.0701 34.63 22.0101 34.47 22.0201ZM33.89 23.0601C33.72 23.9401 33.13 26.8901 32.88 28.1501C32.29 27.5001 31.56 26.6901 31.56 26.6901C31.39 26.5001 31.1 26.4701 30.89 26.6201C30.89 26.6201 18.33 35.7401 17.6 36.2701C17.17 35.7401 15.95 34.2401 15.95 34.2401C15.78 34.0301 15.48 33.9901 15.26 34.1601C15.26 34.1601 7.68997 39.9001 6.96997 40.4501C6.65997 40.0501 6.25997 39.5401 5.93997 39.1401C6.65997 38.5901 15.72 31.5701 16.39 31.0601C16.85 31.5801 18.32 33.2501 18.32 33.2501C18.49 33.4401 18.78 33.4701 18.99 33.3301L29.79 25.5901C29.91 25.5101 29.98 25.3801 30 25.2401C30 25.2201 30 25.2001 30 25.1901C30 25.0701 29.95 24.9501 29.87 24.8601C29.87 24.8601 29.17 24.0801 28.58 23.4301C29.93 23.3301 32.99 23.1201 33.89 23.0601Z" fill="#040000"/>
<path d="M41 15.48H0.5V19.36H41V15.48Z" fill="white"/>
<path d="M0.5 14.98C0.22 14.98 0 15.2 0 15.48V19.35C0 19.63 0.22 19.85 0.5 19.85H41C41.28 19.85 41.5 19.63 41.5 19.35V15.48C41.5 15.2 41.28 14.98 41 14.98H0.5ZM40.5 15.98C40.5 16.63 40.5 18.21 40.5 18.85C39.54 18.85 1.96 18.85 1 18.85C1 18.2 1 16.62 1 15.98C1.96 15.98 39.54 15.98 40.5 15.98Z" fill="#040000"/>
<path d="M25.3701 58.1001H16.1201V60.3501H25.3701V58.1001Z" fill="white"/>
<path d="M25.3799 57.6001H15.6299V60.8501H25.8799V57.6001H25.3799ZM24.8799 58.6001C24.8799 59.0301 24.8799 59.4201 24.8799 59.8501C24.0399 59.8501 17.4699 59.8501 16.6299 59.8501C16.6299 59.4201 16.6299 59.0301 16.6299 58.6001C17.4699 58.6001 24.0299 58.6001 24.8799 58.6001Z" fill="#040000"/>
<path d="M43.7601 56.8901C42.8901 58.6501 40.4901 60.7201 44.5801 59.9001C45.9601 59.6201 47.6401 58.4501 47.5501 56.8901H43.7601Z" fill="#040000"/>
<path d="M47.55 56.3901H43.48L42.62 57.8101C42.02 58.7201 41.5 59.5001 41.92 60.1201C42.27 60.6401 43.07 60.7101 44.68 60.3901C46.41 60.0401 48.15 58.6301 48.05 56.8701L48.02 56.4001H47.55V56.3901ZM46.94 57.3901C46.67 58.4201 45.45 59.2101 44.48 59.4101C43.34 59.6401 42.93 59.6001 42.79 59.5601C42.83 59.3201 43.19 58.7601 43.45 58.3701C43.45 58.3701 43.84 57.7301 44.04 57.4001C44.44 57.3901 46.16 57.3901 46.94 57.3901Z" fill="#040000"/>
<path d="M47.56 56.7899C47.58 56.7199 47.6 56.6499 47.6 56.5699V37.1399C47.6 36.6199 47.18 36.1899 46.65 36.1899H44.75C44.23 36.1899 43.8 36.6099 43.8 37.1399V56.5799C43.8 56.6399 43.82 56.6899 43.83 56.7399C43.81 56.7899 43.78 56.8399 43.75 56.8899H47.54C47.55 56.8599 47.56 56.8299 47.56 56.7899Z" fill="white"/>
<path d="M44.76 35.6999C43.96 35.6999 43.31 36.3499 43.31 37.1499V56.6499C43.31 56.6499 43.31 56.6699 43.32 56.6799C43.26 56.7899 42.99 57.3399 42.99 57.3399L43.77 57.3999H47.98L48.06 56.8799L48.11 56.5899V37.1399C48.11 36.3399 47.46 35.6899 46.66 35.6899H44.76V35.6999ZM44.31 37.1399C44.31 36.8899 44.51 36.6899 44.76 36.6899H46.66C46.91 36.6899 47.11 36.8899 47.11 37.1399C47.11 37.1399 47.11 56.0199 47.11 56.3899C46.52 56.3899 45 56.3899 44.32 56.3899C44.31 56.0199 44.31 37.1399 44.31 37.1399Z" fill="#040000"/>
<path d="M54.9002 56.8901C55.7702 58.6501 58.1702 60.7201 54.0802 59.9001C52.7002 59.6201 51.0202 58.4501 51.1102 56.8901H54.9002Z" fill="#040000"/>
<path d="M51.1101 56.3899H50.6401L50.6101 56.8599C50.5101 58.6199 52.2501 60.0399 53.9801 60.3799C55.6001 60.7099 56.4001 60.6299 56.7401 60.1099C57.1601 59.4899 56.6401 58.7099 56.0401 57.7999L55.2001 56.4199L54.9001 56.3799H51.1101V56.3899ZM54.6201 57.3899C54.8201 57.7299 55.2101 58.3599 55.2101 58.3599C55.4701 58.7499 55.8401 59.3199 55.8701 59.5499C55.7301 59.5899 55.3201 59.6299 54.1801 59.3999C53.2101 59.1999 51.9901 58.4199 51.7201 57.3799C52.5001 57.3899 54.2201 57.3899 54.6201 57.3899Z" fill="#040000"/>
<path d="M51.1101 56.7899C51.0901 56.7199 51.0701 56.6499 51.0701 56.5699V37.1399C51.0701 36.6199 51.4901 36.1899 52.0201 36.1899H53.9201C54.4401 36.1899 54.8701 36.6099 54.8701 37.1399V56.5799C54.8701 56.6399 54.8501 56.6899 54.8401 56.7399C54.8601 56.7899 54.8901 56.8399 54.9201 56.8899H51.1301C51.1101 56.8599 51.1001 56.8299 51.1101 56.7899Z" fill="white"/>
<path d="M52.0101 35.6999C51.2101 35.6999 50.5601 36.3499 50.5601 37.1499V56.5899L50.6701 57.2999L51.1001 57.3999H55.7001C55.7001 57.3999 55.3801 56.7599 55.3301 56.6699C55.3401 56.6299 55.3401 56.5899 55.3401 56.5899V37.1399C55.3401 36.3399 54.6901 35.6899 53.8901 35.6899H52.0101V35.6999ZM51.5601 37.1399C51.5601 36.8899 51.7601 36.6899 52.0101 36.6899H53.9101C54.1601 36.6899 54.3601 36.8899 54.3601 37.1399C54.3601 37.1399 54.3601 56.0199 54.3601 56.3899C53.6701 56.3899 52.1501 56.3899 51.5701 56.3899C51.5601 56.0199 51.5601 37.1399 51.5601 37.1399Z" fill="#040000"/>
<path d="M51.8903 18.0204C51.8903 18.5704 51.4403 19.0204 50.8903 19.0204H47.7703C47.2203 19.0204 46.7703 18.5704 46.7703 18.0204V12.6504C46.7703 12.1004 47.2203 11.6504 47.7703 11.6504H50.8903C51.4403 11.6504 51.8903 12.1004 51.8903 12.6504V18.0204Z" fill="white"/>
<path d="M47.7703 11.1401C46.9403 11.1401 46.2703 11.8101 46.2703 12.6401V18.0101C46.2703 18.8401 46.9403 19.5101 47.7703 19.5101H50.8903C51.7203 19.5101 52.3903 18.8401 52.3903 18.0101V12.6401C52.3903 11.8101 51.7203 11.1401 50.8903 11.1401H47.7703ZM47.2703 18.0201V12.6501C47.2703 12.3701 47.4903 12.1501 47.7703 12.1501H50.8903C51.1703 12.1501 51.3903 12.3701 51.3903 12.6501V18.0201C51.3903 18.3001 51.1703 18.5201 50.8903 18.5201H47.7703C47.4903 18.5201 47.2703 18.2901 47.2703 18.0201Z" fill="#040000"/>
<path d="M45.2201 8.4002C44.9201 7.9602 43.8901 7.5402 43.4301 7.9202C43.0401 8.2402 43.3301 8.9302 43.5401 9.3002C43.8401 9.8202 44.6101 10.1802 45.1901 10.1702" fill="white"/>
<path d="M43.1101 7.52998C42.6101 7.93998 42.6101 8.66998 43.1001 9.53998C43.5101 10.27 44.4901 10.68 45.2001 10.66L45.1701 9.65998C44.7301 9.66998 44.1601 9.37998 43.9701 9.04998C43.7901 8.72998 43.7301 8.48998 43.7301 8.36998C43.7301 8.33998 43.7301 8.31998 43.7401 8.30998C43.7701 8.28998 43.8501 8.25998 44.0201 8.27998C44.3701 8.32998 44.7101 8.54998 44.8101 8.67998L45.6301 8.10998C45.3501 7.70998 44.7401 7.35998 44.1601 7.27998C43.7401 7.22998 43.3801 7.30998 43.1101 7.52998Z" fill="#040000"/>
<path d="M53.6799 8.4002C53.9799 7.9602 55.0099 7.5402 55.4699 7.9202C55.8599 8.2402 55.5699 8.9302 55.3599 9.3002C55.0599 9.8202 54.2899 10.1802 53.7099 10.1702" fill="white"/>
<path d="M54.75 7.29028C54.17 7.37028 53.55 7.72028 53.28 8.12028L54.1 8.69028C54.2 8.55028 54.54 8.33028 54.89 8.28028C55.05 8.26028 55.14 8.28028 55.16 8.31028C55.17 8.32028 55.17 8.34028 55.17 8.37028C55.17 8.49028 55.11 8.74028 54.93 9.05028C54.74 9.38028 54.17 9.68028 53.73 9.66028L53.7 10.6603C54.41 10.6803 55.39 10.2703 55.8 9.54028C56.29 8.67028 56.29 7.94028 55.79 7.53028C55.53 7.31028 55.17 7.23028 54.75 7.29028Z" fill="#040000"/>
<path d="M54.3202 13.2002C54.3202 13.8602 53.7902 14.3902 53.1302 14.3902H45.9202C45.2602 14.3902 44.7302 13.8502 44.7302 13.2002V4.60016C44.7302 3.94016 45.2702 3.41016 45.9202 3.41016H53.1302C53.7902 3.41016 54.3202 3.95016 54.3202 4.60016V13.2002Z" fill="white"/>
<path d="M45.9202 2.91016C44.9902 2.91016 44.2302 3.67016 44.2302 4.60016V13.2002C44.2302 14.1302 44.9902 14.8902 45.9202 14.8902H53.1302C54.0602 14.8902 54.8202 14.1302 54.8202 13.2002V4.60016C54.8202 3.67016 54.0602 2.91016 53.1302 2.91016H45.9202ZM45.2202 13.2002V4.60016C45.2202 4.22016 45.5302 3.91016 45.9102 3.91016H53.1202C53.5002 3.91016 53.8102 4.22016 53.8102 4.60016V13.2002C53.8102 13.5802 53.5002 13.8902 53.1202 13.8902H45.9102C45.5302 13.9002 45.2202 13.5902 45.2202 13.2002Z" fill="#040000"/>
<path d="M47.6101 8.19033C47.6101 8.52033 47.3701 8.79033 47.0801 8.79033C46.7901 8.79033 46.55 8.52033 46.55 8.19033C46.55 7.86033 46.7901 7.59033 47.0801 7.59033C47.3701 7.59033 47.6101 7.86033 47.6101 8.19033Z" fill="#040000"/>
<path d="M52.4301 8.19033C52.4301 8.52033 52.1901 8.79033 51.9001 8.79033C51.6101 8.79033 51.3701 8.52033 51.3701 8.19033C51.3701 7.86033 51.6101 7.59033 51.9001 7.59033C52.1901 7.59033 52.4301 7.86033 52.4301 8.19033Z" fill="#040000"/>
<path d="M57.16 16.1304H54.16H45.09H41.67C41.15 16.1304 40.72 16.5504 40.72 17.0804L42.62 36.0404C42.62 36.5604 43.04 36.9904 43.57 36.9904H55.26C55.78 36.9904 56.21 36.5704 56.21 36.0404L58.11 17.0804C58.11 16.5504 57.68 16.1304 57.16 16.1304Z" fill="white"/>
<path d="M54.16 15.6304H41.67C40.87 15.6304 40.22 16.2804 40.22 17.0804L42.12 36.0904C42.12 36.8404 42.77 37.4904 43.57 37.4904H55.26C56.06 37.4904 56.71 36.8404 56.71 36.0404L58.6 17.1304C58.6 16.2804 57.95 15.6304 57.15 15.6304H54.16ZM43.12 36.0404L41.22 17.0304C41.22 16.8304 41.42 16.6304 41.67 16.6304H57.16C57.41 16.6304 57.61 16.8304 57.61 17.0804L55.72 35.9904C55.72 36.2904 55.52 36.4904 55.27 36.4904H43.57C43.32 36.4904 43.12 36.2804 43.12 36.0404Z" fill="#040000"/>
<path d="M41 16.27L36.5 37.77L39.38 38.14L43.38 24.52" fill="white"/>
<path d="M40.5099 16.1601L36.0099 37.6601C35.9799 37.8001 36.0099 37.9401 36.0899 38.0501C36.1699 38.1601 36.2899 38.2401 36.4299 38.2601L39.2999 38.6401C39.5399 38.6701 39.7699 38.5201 39.8399 38.2901L43.8399 24.6601C43.9199 24.4001 43.7699 24.1201 43.4999 24.0401C43.2399 23.9601 42.9599 24.1101 42.8799 24.3801C42.8799 24.3801 39.2299 36.8201 38.9999 37.5901C38.5199 37.5301 37.6699 37.4201 37.0799 37.3401C37.2899 36.3301 41.4699 16.3701 41.4699 16.3701C41.4799 16.3401 41.4799 16.3001 41.4799 16.2701C41.4799 16.0401 41.3199 15.8301 41.0799 15.7801C40.84 15.7201 40.5699 15.8901 40.5099 16.1601Z" fill="#040000"/>
<path d="M38.8801 37.1401C40.3201 37.9501 40.0001 40.1301 40.8701 41.2401C40.0101 41.7101 39.2701 40.9201 38.9101 40.2801C38.4301 41.3401 37.5101 43.4001 36.1301 42.3701C34.7401 41.3301 36.3001 38.1301 36.7601 36.8901" fill="white"/>
<path d="M36.2899 36.7202L36.0599 37.2902C35.4099 38.9102 34.3099 41.6302 35.8299 42.7702C36.3999 43.2002 36.9099 43.1902 37.2299 43.1102C38.0599 42.9002 38.6299 42.0102 39.0299 41.1902C39.6499 41.8202 40.3899 42.0702 41.0999 41.6802C41.2299 41.6102 41.3199 41.4902 41.3499 41.3402C41.3799 41.2002 41.3499 41.0502 41.2499 40.9302C40.9599 40.5602 40.8199 39.9902 40.6699 39.3902C40.4299 38.4102 40.1499 37.2902 39.1099 36.7102C38.8699 36.5702 38.5599 36.6602 38.4299 36.9002C38.3899 36.9802 38.3699 37.0602 38.3699 37.1502C38.3699 37.3202 38.4599 37.4902 38.6199 37.5902C39.2799 37.9602 39.4799 38.7802 39.6999 39.6402C39.7899 40.0102 39.8899 40.3702 40.0199 40.7202C39.6999 40.5402 39.4299 40.2102 39.3299 40.0402C39.2399 39.8702 39.0499 39.8002 38.8599 39.8102C38.6699 39.8202 38.4899 39.9602 38.4099 40.1302C38.1299 40.7302 37.5599 41.9902 36.9599 42.1402C36.8499 42.1702 36.6799 42.1802 36.4099 41.9702C35.5099 41.3002 36.4899 38.8502 36.9699 37.6702L37.2099 37.0702C37.3099 36.8102 37.1799 36.5302 36.9199 36.4302C36.6799 36.3302 36.3899 36.4602 36.2899 36.7202Z" fill="#040000"/>
<path d="M57.4999 16.02L61.8799 23.9L65.1299 16.65L67.5099 17.27L63.5099 28.89C63.5099 28.89 62.8899 29.89 62.0099 29.39H61.0099L56.1299 22.01" fill="white"/>
<path d="M57.26 15.58C57.02 15.71 56.93 16.02 57.07 16.26L61.45 24.14C61.54 24.31 61.72 24.41 61.91 24.4C62.1 24.39 62.27 24.28 62.34 24.11C62.34 24.11 65.11 17.94 65.42 17.25C65.83 17.36 66.37 17.5 66.86 17.63C66.54 18.55 63.11 28.52 63.06 28.67C62.97 28.8 62.66 29.21 62.25 28.98C62.17 28.94 62.09 28.91 62 28.91C62 28.91 61.56 28.91 61.27 28.91C60.99 28.49 56.54 21.76 56.54 21.76C56.39 21.53 56.08 21.47 55.85 21.62C55.62 21.77 55.56 22.08 55.71 22.31L60.59 29.69C60.68 29.83 60.84 29.91 61.01 29.91C61.01 29.91 61.97 29.91 61.99 29.91C62.9 30.26 63.65 29.62 63.93 29.18L67.98 17.45C68.02 17.32 68.01 17.17 67.95 17.05C67.88 16.93 67.77 16.84 67.64 16.8L65.26 16.18C65.02 16.12 64.78 16.24 64.68 16.46C64.68 16.46 62.46 21.41 61.84 22.8C61.07 21.42 57.95 15.8 57.95 15.8C57.81 15.53 57.5 15.45 57.26 15.58Z" fill="#040000"/>
<path d="M64.8801 17.1402C64.6001 16.2902 63.0601 14.8202 63.3701 13.8902C63.8601 12.4202 65.0901 14.6002 65.2801 15.2502C66.3301 14.2602 70.4501 12.0502 71.6101 14.0102C72.8501 16.1202 68.1801 17.1702 67.1401 18.0102" fill="white"/>
<path d="M65.48 14.4801C65.15 13.8201 64.5699 12.9101 63.8599 12.8901C63.6099 12.8801 63.1499 12.9901 62.8999 13.7301C62.6299 14.5601 63.2599 15.4901 63.8199 16.3101L64.41 17.3001C64.55 17.5401 64.8999 17.7101 65.1399 17.5701C65.3099 17.4701 65.4199 17.3401 65.4199 17.1801C65.4199 17.1201 65.3999 17.0501 65.3599 16.9801L64.6499 15.7401C64.3199 15.2601 63.8399 14.5501 63.8399 14.1601C63.8399 14.1201 63.8399 14.0801 63.8599 14.0501C63.8599 14.0501 63.8799 14.0001 63.8999 13.9601C64.1899 14.1601 64.6899 14.9601 64.8099 15.3901C64.8599 15.5601 64.99 15.6901 65.16 15.7301C65.33 15.7801 65.5099 15.7301 65.6399 15.6101C66.4499 14.8501 68.9099 13.5401 70.3499 13.7401C70.7499 13.8001 71.02 13.9701 71.19 14.2601C71.37 14.5701 71.34 14.7601 71.3 14.8901C71.06 15.6401 69.5399 16.3101 68.4299 16.7901C67.7499 17.0901 67.17 17.3501 66.8299 17.6201C66.6099 17.7901 66.5799 18.1101 66.7499 18.3201C66.9199 18.5301 67.2399 18.5701 67.4499 18.4001C67.6899 18.2101 68.2399 17.9701 68.8299 17.7101C70.2499 17.0801 71.8699 16.3701 72.2499 15.2001C72.3999 14.7301 72.34 14.2401 72.05 13.7601C71.72 13.2101 71.1799 12.8601 70.4899 12.7601C68.7799 12.5201 66.59 13.6801 65.48 14.4801Z" fill="#040000"/>
<path d="M55.67 3.35005C55.44 2.43005 54.66 1.18005 53.65 2.09005C54.64 1.19005 51.32 0.150053 50.97 0.100053C49.4 -0.149947 47.93 0.110053 46.37 0.360053C44.82 0.610053 44 0.940053 43.62 2.59005C43.43 3.42005 43.36 6.63005 41.77 6.00005C44.1 7.02005 46.16 6.67005 48.53 5.83005C50.06 5.29005 52.35 4.84005 53.1 3.27005C53.14 4.15005 53.63 4.59005 54 5.33005C54.4 6.12005 54.4 6.25005 54.4 7.21005C54.61 7.32005 54.76 7.34005 54.98 7.34005C55.39 7.33005 55.79 4.00005 55.73 3.60005C55.71 3.52005 55.69 3.43005 55.67 3.35005Z" fill="#040000"/>
<path d="M47.79 16.4399L48.54 18.5199H50.38L51.21 16.5199L47.79 16.4399Z" fill="#040000"/>
<path d="M48.6199 18.27L47.3799 29.69L49.7099 33.27L52.0399 29.85L50.3799 18.27H48.6199Z" fill="#040000"/>
</g>
<defs>
<clipPath id="clip0">
<rect width="72.31" height="60.85" fill="white"/>
</clipPath>
</defs>
</svg>
