<svg width="69" height="39" viewBox="0 0 69 39" fill="none" xmlns="http://www.w3.org/2000/svg">
<path d="M55.3238 11.8683C53.2934 12.6295 51.8742 11.5656 50.1546 11.5564C49.2223 11.5473 49.2948 11.8132 48.2278 11.3913C47.4819 11.0978 46.7154 10.9052 46.2388 10.2724C46.0524 10.0247 45.6794 7.76844 46.5185 8.27289C45.7209 7.79595 44.9647 6.42934 45.3687 5.51216C45.6069 4.98019 46.156 4.96184 46.4357 4.51242C46.7361 4.04466 46.6014 3.50352 46.85 2.97155C47.2955 1.99016 48.1864 1.78837 49.3569 1.85258C49.6677 1.87092 50.196 2.28366 50.4343 2.21028C50.6829 2.13691 50.6933 1.73334 50.9419 1.62328C52.5372 0.88953 52.9723 0.34839 54.6608 1.25641C55.2824 0.34839 56.3597 0.311702 57.4475 0.59603C58.3901 0.834499 58.2555 1.00876 58.991 1.57742C59.9958 0.742781 61.0421 0.852843 62.0884 1.49487C63.0518 2.08187 63.2279 2.86148 63.8494 3.44848C64.2949 3.87039 64.8025 3.81536 65.4344 4.16389C66.3046 4.64083 66.4496 5.06273 66.3563 5.87903C66.3149 6.21839 65.9731 6.61278 65.9627 6.92462C65.9523 7.5208 65.942 7.13558 66.0974 7.60334C66.2838 8.172 67.0297 8.51136 66.75 9.2818C66.5532 9.83211 65.6726 10.2173 65.1858 10.5934C64.3985 11.2079 63.8805 12.0792 62.7203 12.1434C62.2645 12.1709 62.0366 11.9233 61.5186 12.0242C60.8971 12.1342 60.5034 12.6295 59.6436 12.6295C58.4627 12.6204 57.924 11.905 56.9813 11.5931C56.2251 11.3638 56.194 11.5472 55.3238 11.8683Z" fill="white"/>
<path d="M54.495 0.697055C53.1069 0.0917116 52.3714 0.403555 51.3355 0.91718L50.6828 1.2382C50.6828 1.2382 50.3099 1.63259 50.2374 1.71513C50.1752 1.68762 50.1027 1.6601 50.1027 1.6601L49.3672 1.41246C48.2899 1.35743 46.9743 1.46749 46.3527 2.81576L46.1455 3.66874L45.9694 4.31077L45.6276 4.5951C45.3893 4.74185 45.0578 4.94363 44.8713 5.36554C44.7678 5.59484 44.7263 5.84248 44.7263 6.09929C44.7263 6.84221 45.1096 7.64016 45.6379 8.19965C45.5343 8.4106 45.4618 8.66741 45.4618 8.97009C45.4618 9.63963 45.669 10.3734 45.7933 10.5476C46.2906 11.1897 46.9846 11.4465 47.6683 11.6941L48.0102 11.8225C48.8285 12.1436 49.129 12.1252 49.5641 12.061L50.1442 12.0243C50.7036 12.0243 51.2422 12.1619 51.812 12.2995C52.8686 12.5563 54.0599 12.8498 55.5206 12.2995L56.0282 12.0885C56.4115 11.9234 56.4115 11.9234 56.7844 12.0427L57.6235 12.4554C58.1414 12.7581 58.7319 13.0974 59.6228 13.1066C60.2754 13.1158 60.7209 12.8865 61.0731 12.7122L61.6014 12.5013L62.0365 12.5471L62.7409 12.6388C63.7872 12.5746 64.4087 11.9876 64.9578 11.474L65.5172 10.9787L65.973 10.6761C66.4702 10.355 67.04 9.99734 67.2368 9.46537C67.299 9.2911 67.3197 9.13518 67.3197 8.9976C67.3197 8.53901 67.0503 8.19965 66.8535 7.93366L66.5945 7.5301C66.5945 7.5301 66.522 7.36501 66.4806 7.26412C66.4806 7.22743 66.4806 6.98896 66.4806 6.98896L66.6256 6.64043L66.8742 5.98006C66.8949 5.82413 66.9053 5.67738 66.9053 5.53981C66.9053 4.86109 66.6463 4.32912 65.714 3.82466L64.8749 3.49448C64.5952 3.41193 64.4087 3.34773 64.243 3.19181L63.725 2.52226C63.4246 2.08201 63.0931 1.58673 62.4094 1.16482C60.9591 0.275149 59.8507 0.550305 59.0738 1.02724C58.9909 0.96304 58.908 0.880493 58.908 0.880493C58.5869 0.577821 58.3693 0.385212 57.6131 0.192602C55.9557 -0.247648 55.0233 0.165087 54.495 0.697055ZM46.3941 8.65824C46.3941 8.65824 46.2595 8.65824 46.218 8.65824C46.2284 8.65824 46.3631 8.65824 46.3941 8.65824ZM55.0958 1.51335C55.3548 1.13731 55.8521 0.678712 57.292 1.05476C57.81 1.18316 57.8825 1.25654 58.1104 1.48584L58.9909 2.25627L59.3328 1.93526C60.0683 1.32074 60.8245 1.31157 61.7879 1.89857C62.2851 2.20124 62.5441 2.57729 62.8031 2.97168L63.4557 3.78798C63.7976 4.11817 64.1808 4.22823 64.5123 4.32912L65.1442 4.57676C65.828 4.95281 65.9005 5.1821 65.8176 5.85165L65.6622 6.2277L65.4239 6.93393V7.08068L65.5068 7.57596L65.5793 7.75023L65.9833 8.41978C66.232 8.73162 66.3356 8.87837 66.232 9.15352C66.1387 9.40117 65.7036 9.67632 65.3514 9.90562L64.8231 10.2633L64.1912 10.8228C63.694 11.2906 63.3107 11.6666 62.6684 11.7033L62.3266 11.6483L61.3942 11.5841L60.5551 11.8959C60.2547 12.0427 60.0061 12.1711 59.6332 12.1711C59.0427 12.1619 58.649 11.9326 58.1932 11.6666L57.147 11.1622C56.4011 10.9145 56.0903 11.0246 55.5827 11.2447L55.1269 11.4281C53.9978 11.8501 53.0758 11.6208 52.0917 11.3915C51.4805 11.2447 50.8486 11.0888 50.1649 11.0888L49.419 11.1438C49.1393 11.1805 49.0254 11.1989 48.4349 10.9696L48.0723 10.832C47.4922 10.621 46.9846 10.4284 46.6635 10.0157C46.591 9.85976 46.4977 9.2911 46.4977 8.89671C46.4977 8.78665 46.5185 8.71327 46.5288 8.64907C46.9535 8.64907 47.8444 8.6399 47.8444 8.6399L46.7878 7.90615C46.2491 7.58513 45.7519 6.74132 45.7519 6.08095C45.7519 5.94337 45.7726 5.80579 45.8244 5.69573C45.8969 5.53981 46.0005 5.4756 46.2077 5.33802L46.8603 4.75102L47.1607 3.76963L47.3058 3.15512C47.6062 2.48557 48.1552 2.26545 49.3051 2.32048C49.3051 2.32965 49.6055 2.45806 49.6055 2.45806C49.9163 2.60481 50.2374 2.76073 50.5792 2.65984L51.149 2.12787C51.149 2.12787 51.1904 2.04532 51.2112 2.02698C51.3251 1.97195 51.8431 1.71513 51.8431 1.71513C52.8893 1.19234 53.2001 1.03641 54.3811 1.66927L54.8265 1.90774L55.0958 1.51335Z" fill="black"/>
<path d="M16.829 24.2595C16.829 24.9382 16.2074 25.4793 15.4512 25.4793H11.1314C10.3649 25.4793 9.75366 24.929 9.75366 24.2595V17.6832C9.75366 17.0045 10.3752 16.4634 11.1314 16.4634H15.4512C16.2178 16.4634 16.829 17.0137 16.829 17.6832V24.2595Z" fill="white"/>
<path d="M11.1316 16.0049C10.0853 16.0049 9.23584 16.757 9.23584 17.6833V24.2596C9.23584 25.1859 10.0853 25.938 11.1316 25.938H15.4513C16.4976 25.938 17.3471 25.1859 17.3471 24.2596V17.6833C17.3471 16.757 16.4976 16.0049 15.4513 16.0049H11.1316ZM10.2718 24.2596V17.6833C10.2718 17.2614 10.655 16.9221 11.1316 16.9221H15.4513C15.9279 16.9221 16.3112 17.2614 16.3112 17.6833V24.2596C16.3112 24.6815 15.9279 25.0208 15.4513 25.0208H11.1316C10.655 25.03 10.2718 24.6815 10.2718 24.2596Z" fill="black"/>
<path d="M7.61101 12.4932C7.19665 11.9612 5.77744 11.4384 5.13517 11.9062C4.5965 12.3006 5.0005 13.1444 5.29056 13.5938C5.70493 14.2359 6.77192 14.6761 7.57994 14.6578" fill="white"/>
<path d="M4.80199 11.5471C4.1908 11.9965 4.1908 12.822 4.83307 13.8126C5.37175 14.6564 6.65628 15.1333 7.58861 15.1058L7.55753 14.1886C6.88419 14.207 6.03473 13.8217 5.73432 13.3632C5.41318 12.8587 5.28887 12.3818 5.46498 12.2534C5.55821 12.18 5.75504 12.1616 5.98294 12.1892C6.48018 12.2534 7.01886 12.5377 7.1846 12.7486L8.03405 12.2258C7.68184 11.7672 6.87383 11.3729 6.12797 11.2811C5.58929 11.2169 5.13349 11.3087 4.80199 11.5471Z" fill="black"/>
<path d="M19.3062 12.4937C19.7309 11.9617 21.1397 11.4389 21.782 11.9067C22.3207 12.3011 21.9167 13.1449 21.6266 13.5943C21.2122 14.2363 20.1452 14.6766 19.3372 14.6582" fill="white"/>
<path d="M20.7966 11.2812C20.0404 11.3729 19.2323 11.7765 18.8801 12.2259L19.7296 12.7487C19.8953 12.5286 20.434 12.2443 20.9416 12.1892C21.1695 12.1617 21.356 12.1892 21.4596 12.2534C21.6253 12.3727 21.501 12.8588 21.1902 13.3541C20.9002 13.8127 20.0507 14.1979 19.367 14.1795L19.3359 15.0967C20.2683 15.1242 21.5528 14.6473 22.0915 13.8035C22.7234 12.8129 22.7337 11.9875 22.1225 11.538C21.7807 11.3087 21.3353 11.217 20.7966 11.2812Z" fill="black"/>
<path d="M20.1853 18.371C20.1853 19.1782 19.4498 19.8294 18.5382 19.8294H8.57264C7.66104 19.8294 6.92554 19.1782 6.92554 18.371V7.85091C6.92554 7.04378 7.66104 6.39258 8.57264 6.39258H18.5278C19.4394 6.39258 20.1749 7.04378 20.1749 7.85091V18.371H20.1853Z" fill="white"/>
<path d="M8.57278 5.9248C7.38148 5.9248 6.40771 6.78696 6.40771 7.84173V18.3619C6.40771 19.4166 7.38148 20.2788 8.57278 20.2788H18.5279C19.7193 20.2788 20.693 19.4166 20.693 18.3619V7.8509C20.693 6.79613 19.7193 5.93398 18.5279 5.93398H8.57278V5.9248ZM7.44363 18.371V7.8509C7.44363 7.30059 7.95123 6.85116 8.57278 6.85116H18.5279C19.1495 6.85116 19.6571 7.30059 19.6571 7.8509V18.371C19.6571 18.9214 19.1495 19.3708 18.5279 19.3708H8.57278C7.95123 19.3708 7.44363 18.9214 7.44363 18.371Z" fill="black"/>
<path d="M10.9139 12.2352C10.9139 12.6388 10.5824 12.969 10.1888 12.969C9.78476 12.969 9.46362 12.6388 9.46362 12.2352C9.46362 11.8317 9.78476 11.5015 10.1888 11.5015C10.5824 11.5015 10.9139 11.8317 10.9139 12.2352Z" fill="black"/>
<path d="M17.5749 12.2352C17.5749 12.6388 17.2434 12.969 16.8498 12.969C16.4458 12.969 16.1143 12.6388 16.1143 12.2352C16.1143 11.8317 16.4458 11.5015 16.8498 11.5015C17.2434 11.5015 17.5749 11.8317 17.5749 12.2352Z" fill="black"/>
<path d="M5.70345 11.7217C5.14405 9.9057 4.41891 6.80561 5.00938 4.77862C5.5377 2.99011 7.30912 2.21967 8.87335 3.7422C9.68137 -3.92549 18.6213 4.73276 22.4335 2.10961C22.0917 5.63161 22.6614 8.07133 20.2063 11.2448C20.227 8.97017 21.0868 7.21834 18.3727 6.62217C16.6945 6.2553 14.1565 6.5488 12.4369 6.62217C11.3078 6.66803 8.29324 6.52128 7.47487 7.17248C6.41823 8.0163 6.58398 10.3551 6.62541 11.52" fill="black"/>
<path d="M40.0545 15.2255L34.3258 11.6484V13.9139H27.8721V16.537H34.3258V18.8025L40.0545 15.2255Z" fill="white"/>
<path d="M34.0875 11.2444C33.9114 11.327 33.8078 11.4829 33.8078 11.648C33.8078 11.648 33.8078 12.8678 33.8078 13.4548C32.9272 13.4548 27.872 13.4548 27.872 13.4548C27.5819 13.4548 27.354 13.6566 27.354 13.9134V16.5366C27.354 16.7934 27.5819 16.9952 27.872 16.9952C27.872 16.9952 32.9272 16.9952 33.8078 16.9952C33.8078 17.5822 33.8078 18.802 33.8078 18.802C33.8078 18.9763 33.9114 19.1322 34.0875 19.2056C34.2636 19.2881 34.4708 19.2698 34.6261 19.1689L40.3548 15.5919C40.4894 15.5093 40.5723 15.3626 40.5723 15.2158C40.5723 15.0691 40.4894 14.9315 40.3548 14.8398L34.6261 11.2628C34.4708 11.1802 34.2636 11.1619 34.0875 11.2444ZM34.3257 14.372C34.6158 14.372 34.8437 14.1702 34.8437 13.9134C34.8437 13.9134 34.8437 13.1889 34.8437 12.5376C35.9003 13.198 38.3451 14.7206 39.1531 15.225C38.3451 15.7295 35.89 17.2612 34.8437 17.9124C34.8437 17.252 34.8437 16.5274 34.8437 16.5274C34.8437 16.2706 34.6158 16.0688 34.3257 16.0688C34.3257 16.0688 29.2705 16.0688 28.3899 16.0688C28.3899 15.5735 28.3899 14.8581 28.3899 14.3629C29.2705 14.372 34.3257 14.372 34.3257 14.372Z" fill="black"/>
<path d="M27.8721 26.0023L33.6007 22.4253V24.6907H40.0545V27.3139H33.6007V29.5794L27.8721 26.0023Z" fill="white"/>
<path d="M33.3104 22.0493L27.5818 25.6264C27.4471 25.7089 27.3643 25.8557 27.3643 26.0024C27.3643 26.1492 27.4471 26.2868 27.5818 26.3785L33.3104 29.9555C33.4658 30.0564 33.673 30.0656 33.8491 29.9922C34.0252 29.9096 34.1288 29.7537 34.1288 29.5886C34.1288 29.5886 34.1288 28.3688 34.1288 27.7818C35.0093 27.7818 40.0646 27.7818 40.0646 27.7818C40.3547 27.7818 40.5826 27.58 40.5826 27.3232V24.7C40.5826 24.4432 40.3547 24.2414 40.0646 24.2414C40.0646 24.2414 35.0093 24.2414 34.1288 24.2414C34.1288 23.6544 34.1288 22.4346 34.1288 22.4346C34.1288 22.2603 34.0252 22.1044 33.8491 22.031C33.673 21.9393 33.4658 21.9576 33.3104 22.0493ZM33.0825 23.3151C33.0825 23.9754 33.0825 24.6908 33.0825 24.6908C33.0825 24.9477 33.3104 25.1494 33.6005 25.1494C33.6005 25.1494 38.6558 25.1494 39.5363 25.1494C39.5363 25.6447 39.5363 26.3601 39.5363 26.8554C38.6558 26.8554 33.6005 26.8554 33.6005 26.8554C33.3104 26.8554 33.0825 27.0572 33.0825 27.314C33.0825 27.314 33.0825 28.0386 33.0825 28.699C32.0259 28.0386 29.5811 26.5161 28.7731 26.0116C29.5811 25.498 32.0362 23.9663 33.0825 23.3151Z" fill="black"/>
<path d="M19.5847 21.9482H8.03418L13.4624 32.9361L19.5847 21.9482Z" fill="white"/>
<path d="M8.03404 21.4896C7.85794 21.4896 7.69219 21.563 7.59896 21.7006C7.50573 21.829 7.48501 21.9941 7.55752 22.1317L12.9857 33.1196C13.0686 33.2847 13.2447 33.3947 13.4519 33.3947C13.6487 33.3947 13.8352 33.303 13.9284 33.1379L20.0507 22.15C20.1336 22.0124 20.1232 21.8382 20.03 21.7006C19.9367 21.563 19.771 21.4805 19.5949 21.4805H8.03404V21.4896ZM18.7558 22.4068C18.155 23.4708 14.2703 30.4506 13.4933 31.8447C12.7889 30.423 9.3393 23.4433 8.8317 22.4068C10.0955 22.4068 17.4195 22.4068 18.7558 22.4068Z" fill="black"/>
<path d="M24.1134 21.9497H19.9697H19.5968L13.4745 32.9376L8.03598 21.9497H7.43515H2.70101C1.97587 21.9497 1.39575 22.4725 1.39575 23.1145L4.01662 37.1475C4.01662 37.7895 4.6071 38.3032 5.32188 38.3032H21.4822C22.2073 38.3032 22.7978 37.7804 22.7978 37.1475L25.4187 23.1145C25.4187 22.4725 24.8386 21.9497 24.1134 21.9497Z" fill="white"/>
<path d="M19.9576 21.4902H19.5846C19.3878 21.4902 19.2117 21.5911 19.1185 21.747C19.1185 21.747 14.3222 30.3594 13.4831 31.8545C12.7269 30.3319 8.50033 21.7746 8.50033 21.7746C8.41745 21.6095 8.23099 21.4994 8.02381 21.4994H2.69919C1.69435 21.4902 0.875977 22.2148 0.875977 23.1137L3.50721 37.22C3.49685 38.0363 4.32558 38.7609 5.33042 38.7609H21.4907C22.4956 38.7609 23.3243 38.0363 23.3243 37.1466L25.9348 23.187C25.9452 22.224 25.1164 21.4902 24.1116 21.4902H19.9576ZM19.9576 22.4074H24.1012C24.5363 22.4074 24.8989 22.7193 24.8989 23.1137L22.2884 37.0732C22.278 37.5318 21.9258 37.8529 21.4907 37.8529H5.33042C4.89534 37.8529 4.54312 37.541 4.54312 37.1558L1.90153 23.0403C1.91189 22.7284 2.26411 22.4166 2.69919 22.4166C2.69919 22.4166 7.55764 22.4166 7.69231 22.4166C7.95129 22.9394 12.9858 33.1293 12.9858 33.1293C13.0687 33.2944 13.2448 33.4045 13.452 33.4045C13.6488 33.4045 13.8353 33.3128 13.9285 33.1477C13.9285 33.1477 19.6364 22.9027 19.9161 22.4166C19.9265 22.4074 19.9576 22.4074 19.9576 22.4074Z" fill="black"/>
<path d="M10.8726 21.9297L12.0742 24.8372H14.8401L16.394 21.9297H10.8726Z" fill="black"/>
<path d="M12.0741 24.8374L10.5203 26.9744L13.4623 32.7894L16.57 27.2863L14.84 24.8374H12.0741Z" fill="black"/>
<path d="M59.3016 24.2595C59.3016 24.9382 58.6801 25.4793 57.9239 25.4793H53.6041C52.8375 25.4793 52.2263 24.929 52.2263 24.2595V17.6832C52.2263 17.0045 52.8479 16.4634 53.6041 16.4634H57.9239C58.6904 16.4634 59.3016 17.0137 59.3016 17.6832V24.2595Z" fill="white"/>
<path d="M53.6042 16.0049C52.5579 16.0049 51.7085 16.757 51.7085 17.6833V24.2596C51.7085 25.1859 52.5579 25.938 53.6042 25.938H57.924C58.9703 25.938 59.8197 25.1859 59.8197 24.2596V17.6833C59.8197 16.757 58.9703 16.0049 57.924 16.0049H53.6042ZM52.7444 24.2596V17.6833C52.7444 17.2614 53.1277 16.9221 53.6042 16.9221H57.924C58.4005 16.9221 58.7838 17.2614 58.7838 17.6833V24.2596C58.7838 24.6815 58.4005 25.0208 57.924 25.0208H53.6042C53.1277 25.03 52.7444 24.6815 52.7444 24.2596Z" fill="black"/>
<path d="M50.0837 12.4932C49.6693 11.9612 48.2501 11.4384 47.6078 11.9062C47.0692 12.3006 47.4732 13.1444 47.7632 13.5938C48.1776 14.2359 49.2446 14.6761 50.0526 14.6578" fill="white"/>
<path d="M47.2747 11.5471C46.6635 11.9965 46.6739 12.822 47.3058 13.8126C47.8445 14.6564 49.129 15.1333 50.0613 15.1058L50.0303 14.1886C49.3569 14.207 48.5075 13.8217 48.2071 13.3632C47.8859 12.8587 47.7616 12.3818 47.9377 12.2534C48.0309 12.18 48.2278 12.1616 48.4557 12.1892C48.9529 12.2534 49.4916 12.5377 49.6573 12.7486L50.5068 12.2258C50.1546 11.7672 49.3466 11.3729 48.6007 11.2811C48.062 11.2169 47.6062 11.3087 47.2747 11.5471Z" fill="black"/>
<path d="M61.7788 12.4937C62.2035 11.9617 63.6124 11.4389 64.2546 11.9067C64.7933 12.3011 64.3893 13.1449 64.0993 13.5943C63.6849 14.2363 62.6179 14.6766 61.8099 14.6582" fill="white"/>
<path d="M63.2692 11.2812C62.513 11.3729 61.705 11.7765 61.3528 12.2259L62.2022 12.7487C62.368 12.5286 62.9067 12.2443 63.4143 12.1892C63.6422 12.1617 63.8286 12.1892 63.9322 12.2534C64.098 12.3727 63.9737 12.8588 63.6629 13.3541C63.3728 13.8127 62.5234 14.1979 61.8397 14.1795L61.8086 15.0967C62.7409 15.1242 64.0255 14.6473 64.5641 13.8035C65.196 12.8129 65.2064 11.9875 64.5952 11.538C64.2534 11.3087 63.8079 11.217 63.2692 11.2812Z" fill="black"/>
<path d="M62.6581 18.371C62.6581 19.1782 61.9226 19.8294 61.011 19.8294H51.0558C50.1442 19.8294 49.4087 19.1782 49.4087 18.371V7.85091C49.4087 7.04378 50.1442 6.39258 51.0558 6.39258H61.011C61.9226 6.39258 62.6581 7.04378 62.6581 7.85091V18.371Z" fill="white"/>
<path d="M51.0454 5.9248C49.8541 5.9248 48.8804 6.78696 48.8804 7.84173V18.3619C48.8804 19.4166 49.8541 20.2788 51.0454 20.2788H61.0006C62.1919 20.2788 63.1657 19.4166 63.1657 18.3619V7.8509C63.1657 6.79613 62.1919 5.93398 61.0006 5.93398H51.0454V5.9248ZM49.9059 18.371V7.8509C49.9059 7.30059 50.4135 6.85116 51.0351 6.85116H60.9902C61.6118 6.85116 62.1194 7.30059 62.1194 7.8509V18.371C62.1194 18.9214 61.6118 19.3708 60.9902 19.3708H51.0351C50.4239 19.3708 49.9059 18.9214 49.9059 18.371Z" fill="black"/>
<path d="M53.3866 12.2352C53.3866 12.6388 53.0551 12.969 52.6614 12.969C52.2574 12.969 51.9363 12.6388 51.9363 12.2352C51.9363 11.8317 52.2574 11.5015 52.6614 11.5015C53.0551 11.5015 53.3866 11.8317 53.3866 12.2352Z" fill="black"/>
<path d="M60.0476 12.2352C60.0476 12.6388 59.7161 12.969 59.3224 12.969C58.9184 12.969 58.5869 12.6388 58.5869 12.2352C58.5869 11.8317 58.9184 11.5015 59.3224 11.5015C59.7161 11.5015 60.0476 11.8317 60.0476 12.2352Z" fill="black"/>
<path d="M62.0573 21.9482H50.5068L55.935 32.9361L62.0573 21.9482Z" fill="white"/>
<path d="M50.5067 21.4896C50.3306 21.4896 50.1648 21.563 50.0716 21.7006C49.9784 21.829 49.9577 21.9941 50.0302 22.1317L55.4584 33.1196C55.5413 33.2847 55.7174 33.3947 55.9245 33.3947C56.1214 33.3947 56.3078 33.303 56.4011 33.1379L62.5233 22.15C62.6062 22.0124 62.5959 21.8382 62.5026 21.7006C62.4094 21.563 62.2436 21.4805 62.0675 21.4805H50.5067V21.4896ZM61.2284 22.4068C60.6276 23.4708 56.7429 30.4506 55.966 31.8447C55.2616 30.423 51.812 23.4433 51.3044 22.4068C52.5682 22.4068 59.8921 22.4068 61.2284 22.4068Z" fill="black"/>
<path d="M66.5861 21.9497H62.4424H62.0695L55.9472 32.9376L50.519 21.9497H49.9182H45.1944C44.4693 21.9497 43.8892 22.4725 43.8892 23.1145L46.51 37.1475C46.51 37.7895 47.1005 38.3032 47.8153 38.3032H63.9756C64.7007 38.3032 65.2912 37.7804 65.2912 37.1475L67.9121 23.1145C67.8914 22.4725 67.3113 21.9497 66.5861 21.9497Z" fill="white"/>
<path d="M62.4302 21.4902H62.0573C61.8605 21.4902 61.6844 21.5911 61.5911 21.747C61.5911 21.747 56.7948 30.3594 55.9557 31.8545C55.1995 30.3319 50.973 21.7746 50.973 21.7746C50.8901 21.6095 50.7036 21.4994 50.4965 21.4994H45.1718C44.167 21.4994 43.3486 22.224 43.3486 23.1228L45.9799 37.2292C45.9695 38.0455 46.7982 38.77 47.8031 38.77H63.9634C64.9682 38.77 65.797 38.0455 65.797 37.1558L68.4075 23.1962C68.4178 22.2332 67.5891 21.4994 66.5843 21.4994H62.4302V21.4902ZM62.4302 22.4074H66.5739C67.009 22.4074 67.3716 22.7193 67.3716 23.1137L64.761 37.0732C64.7507 37.5318 64.3985 37.8529 63.9634 37.8529H47.8031C47.368 37.8529 47.0158 37.541 47.0158 37.1558L44.3846 23.0495C44.3949 22.7376 44.7471 22.4258 45.1822 22.4258C45.1822 22.4258 50.0407 22.4258 50.1753 22.4258C50.4343 22.9486 55.4689 33.1385 55.4689 33.1385C55.5517 33.3036 55.7278 33.4137 55.935 33.4137C56.1319 33.4137 56.3183 33.322 56.4116 33.1569C56.4116 33.1569 62.1195 22.9119 62.3992 22.4258C62.3992 22.4074 62.4302 22.4074 62.4302 22.4074Z" fill="black"/>
<path d="M53.3452 21.9297L54.5469 24.8372H57.3128L58.8666 21.9297H53.3452Z" fill="black"/>
<path d="M54.5468 24.8374L52.9929 26.9744L55.9349 32.7894L59.0427 27.2863L57.3127 24.8374H54.5468Z" fill="black"/>
</svg>
