<svg width="37" height="61" viewBox="0 0 37 61" fill="none" xmlns="http://www.w3.org/2000/svg">
<path d="M8.73009 56.6899C7.86009 58.4499 5.46009 60.5199 9.55009 59.6999C10.9301 59.4199 12.6101 58.2499 12.5201 56.6899H8.73009Z" fill="black"/>
<path d="M12.52 56.1899H8.44999L7.59 57.6099C6.99 58.5199 6.46999 59.2999 6.88999 59.9199C7.24 60.4399 8.04 60.5099 9.66 60.1899C11.39 59.8399 13.13 58.4299 13.03 56.6699L13 56.1999H12.52V56.1899ZM11.91 57.1899C11.64 58.2199 10.42 59.0099 9.45 59.2099C8.31 59.4399 7.9 59.3999 7.76 59.3599C7.8 59.1199 8.16 58.5599 8.42 58.1699C8.42 58.1699 8.81 57.5299 9.01 57.1999C9.41 57.1899 11.13 57.1899 11.91 57.1899Z" fill="black"/>
<path d="M12.52 56.6C12.54 56.53 12.56 56.46 12.56 56.38V36.95C12.56 36.43 12.14 36 11.61 36H9.70996C9.18996 36 8.75996 36.42 8.75996 36.95V56.39C8.75996 56.45 8.77996 56.5 8.78996 56.55C8.76996 56.6 8.73996 56.65 8.70996 56.7H12.5C12.52 56.66 12.53 56.63 12.52 56.6Z" fill="white"/>
<path d="M9.71995 35.5C8.91995 35.5 8.26995 36.15 8.26995 36.95V56.45C8.26995 56.45 8.26995 56.47 8.27995 56.48C8.22995 56.58 7.94995 57.14 7.94995 57.14L8.72995 57.2H12.95L13.03 56.68L13.08 56.39V36.95C13.08 36.15 12.43 35.5 11.63 35.5H9.71995ZM9.27995 36.95C9.27995 36.7 9.47995 36.5 9.72995 36.5H11.63C11.88 36.5 12.08 36.7 12.08 36.95C12.08 36.95 12.08 55.83 12.08 56.2C11.49 56.2 9.96995 56.2 9.28995 56.2C9.27995 55.83 9.27995 36.95 9.27995 36.95Z" fill="black"/>
<path d="M19.8701 56.6899C20.7401 58.4499 23.1401 60.5199 19.0501 59.6999C17.6701 59.4199 15.9901 58.2499 16.0801 56.6899H19.8701Z" fill="black"/>
<path d="M16.08 56.1902H15.6L15.57 56.6602C15.47 58.4202 17.21 59.8402 18.94 60.1802C20.56 60.5102 21.36 60.4302 21.7 59.9102C22.12 59.2902 21.6 58.5102 21 57.6002L20.16 56.2202L19.86 56.1802H16.08V56.1902ZM19.59 57.1902C19.79 57.5302 20.18 58.1602 20.18 58.1602C20.44 58.5502 20.81 59.1202 20.84 59.3502C20.7 59.3902 20.29 59.4302 19.15 59.2002C18.18 59.0002 16.96 58.2202 16.69 57.1802C17.47 57.1902 19.19 57.1902 19.59 57.1902Z" fill="black"/>
<path d="M16.07 56.6C16.05 56.53 16.03 56.46 16.03 56.38V36.95C16.03 36.43 16.45 36 16.98 36H18.88C19.4 36 19.83 36.42 19.83 36.95V56.39C19.83 56.45 19.81 56.5 19.8 56.55C19.82 56.6 19.85 56.65 19.88 56.7H16.09C16.08 56.66 16.07 56.63 16.07 56.6Z" fill="white"/>
<path d="M16.98 35.5C16.18 35.5 15.53 36.15 15.53 36.95V56.39L15.64 57.1L16.07 57.2H20.67C20.67 57.2 20.35 56.56 20.3 56.47C20.31 56.43 20.31 56.39 20.31 56.39V36.95C20.31 36.15 19.66 35.5 18.86 35.5H16.98ZM16.53 36.95C16.53 36.7 16.73 36.5 16.98 36.5H18.88C19.13 36.5 19.33 36.7 19.33 36.95C19.33 36.95 19.33 55.83 19.33 56.2C18.64 56.2 17.12 56.2 16.54 56.2C16.53 55.83 16.53 36.95 16.53 36.95Z" fill="black"/>
<path d="M16.86 17.8199C16.86 18.3699 16.41 18.8199 15.86 18.8199H12.74C12.19 18.8199 11.74 18.3699 11.74 17.8199V12.4399C11.74 11.8899 12.19 11.4399 12.74 11.4399H15.86C16.41 11.4399 16.86 11.8899 16.86 12.4399V17.8199Z" fill="white"/>
<path d="M12.74 10.9399C11.91 10.9399 11.24 11.6099 11.24 12.4399V17.8199C11.24 18.6499 11.91 19.3199 12.74 19.3199H15.86C16.69 19.3199 17.36 18.6499 17.36 17.8199V12.4399C17.36 11.6099 16.69 10.9399 15.86 10.9399H12.74ZM12.24 17.8199V12.4399C12.24 12.1599 12.46 11.9399 12.74 11.9399H15.86C16.14 11.9399 16.36 12.1599 16.36 12.4399V17.8199C16.36 18.0999 16.14 18.3199 15.86 18.3199H12.74C12.46 18.3199 12.24 18.0899 12.24 17.8199Z" fill="black"/>
<path d="M10.1898 8.2C9.8898 7.76 8.8598 7.34 8.3998 7.72C8.0098 8.04 8.2998 8.73 8.5098 9.1C8.8098 9.62 9.5798 9.98 10.1598 9.97" fill="white"/>
<path d="M8.07987 7.33009C7.57987 7.74009 7.57987 8.47009 8.06987 9.34009C8.47987 10.0701 9.45987 10.4801 10.1699 10.4601L10.1399 9.46009C9.69987 9.47009 9.12987 9.18009 8.93987 8.85009C8.75987 8.53009 8.69987 8.29009 8.69987 8.17009C8.69987 8.14009 8.69987 8.12009 8.70987 8.11009C8.73987 8.09009 8.81987 8.06009 8.98987 8.08009C9.33987 8.13009 9.67987 8.35009 9.77987 8.49009L10.5999 7.92009C10.3199 7.52009 9.70987 7.17009 9.12987 7.09009C8.70987 7.03009 8.34987 7.11009 8.07987 7.33009Z" fill="black"/>
<path d="M18.6497 8.2C18.9497 7.76 19.9797 7.34 20.4397 7.72C20.8297 8.04 20.5397 8.73 20.3297 9.1C20.0297 9.62 19.2597 9.98 18.6797 9.97" fill="white"/>
<path d="M19.7198 7.09009C19.1398 7.17009 18.5198 7.52009 18.2498 7.92009L19.0698 8.49009C19.1698 8.35009 19.5098 8.13009 19.8598 8.08009C20.0198 8.06009 20.1098 8.09009 20.1298 8.11009C20.1398 8.12009 20.1398 8.14009 20.1398 8.17009C20.1398 8.29009 20.0798 8.54009 19.8998 8.85009C19.7098 9.19009 19.1398 9.48009 18.6998 9.46009L18.6698 10.4601C19.3798 10.4801 20.3598 10.0701 20.7698 9.34009C21.2598 8.47009 21.2598 7.74009 20.7598 7.33009C20.4998 7.11009 20.1298 7.03009 19.7198 7.09009Z" fill="black"/>
<path d="M19.2799 13.0097C19.2799 13.6697 18.7499 14.1997 18.0899 14.1997H10.8799C10.2199 14.1997 9.68994 13.6697 9.68994 13.0097V4.40973C9.68994 3.74973 10.2299 3.21973 10.8799 3.21973H18.0899C18.7499 3.21973 19.2799 3.74973 19.2799 4.40973V13.0097Z" fill="white"/>
<path d="M10.8799 2.70996C9.94994 2.70996 9.18994 3.46996 9.18994 4.39996V13C9.18994 13.93 9.94994 14.69 10.8799 14.69H18.0899C19.0199 14.69 19.7799 13.93 19.7799 13V4.39996C19.7799 3.46996 19.0199 2.70996 18.0899 2.70996H10.8799ZM10.1899 13.01V4.40996C10.1899 4.02996 10.4999 3.71996 10.8799 3.71996H18.0899C18.4699 3.71996 18.7799 4.02996 18.7799 4.40996V13.01C18.7799 13.39 18.4699 13.7 18.0899 13.7H10.8799C10.4999 13.7 10.1899 13.39 10.1899 13.01Z" fill="black"/>
<path d="M12.5798 7.99014C12.5798 8.32014 12.3398 8.59014 12.0498 8.59014C11.7598 8.59014 11.5198 8.32014 11.5198 7.99014C11.5198 7.66014 11.7598 7.39014 12.0498 7.39014C12.3398 7.39014 12.5798 7.66014 12.5798 7.99014Z" fill="black"/>
<path d="M17.3898 7.99014C17.3898 8.32014 17.1498 8.59014 16.8598 8.59014C16.5698 8.59014 16.3298 8.32014 16.3298 7.99014C16.3298 7.66014 16.5698 7.39014 16.8598 7.39014C17.1598 7.39014 17.3898 7.66014 17.3898 7.99014Z" fill="black"/>
<path d="M21.1799 35.8402C21.1799 36.3602 20.7599 36.7902 20.2299 36.7902H8.53994C8.01994 36.7902 7.58994 36.3702 7.58994 35.8402L5.68994 16.8802C5.68994 16.3602 6.10994 15.9302 6.63994 15.9302H22.1299C22.6499 15.9302 23.0799 16.3502 23.0799 16.8802L21.1799 35.8402Z" fill="white"/>
<path d="M6.63994 15.4302C5.83994 15.4302 5.18994 16.0802 5.18994 16.8802L7.08994 35.8902C7.08994 36.6402 7.73994 37.2902 8.53994 37.2902H20.2299C21.0299 37.2902 21.6799 36.6402 21.6799 35.8402V35.8902L23.5799 16.9302C23.5799 16.0802 22.9299 15.4302 22.1299 15.4302H6.63994ZM8.08994 35.8402L6.18994 16.8302C6.18994 16.6302 6.38994 16.4302 6.63994 16.4302H22.1299C22.3799 16.4302 22.5799 16.6302 22.5799 16.8802L20.6799 35.8202V35.8402C20.6799 36.0902 20.4799 36.2902 20.2299 36.2902H8.53994C8.28994 36.2902 8.08994 36.0902 8.08994 35.8402Z" fill="black"/>
<path d="M12.5498 16.1499L13.2998 18.2399H15.1298L15.9698 16.2399L12.5498 16.1499Z" fill="black"/>
<path d="M13.3799 17.9897L12.1299 29.3997L14.4699 32.9897L16.7999 29.5697L15.1299 17.9897H13.3799Z" fill="black"/>
<path d="M0.100098 45.1199L20.2201 42.2699L14.6101 36.0699L35.5001 19.2299L28.2901 11.6699L10.4001 31.4199L4.9301 25.3799L0.100098 45.1199Z" fill="white"/>
<path d="M0.57002 45.3L20.67 42.3C20.85 42.27 21.01 42.15 21.07 41.97C21.09 41.91 21.1 41.84 21.1 41.78C21.09 41.67 21.05 41.56 20.97 41.47C20.97 41.47 16.3 36.39 15.67 35.7C16.46 35.06 36.02 19.04 36.02 19.04C36.13 18.95 36.19 18.82 36.2 18.68C36.2 18.66 36.2 18.64 36.2 18.62C36.19 18.5 36.14 18.39 36.06 18.3L28.8 10.8C28.7 10.7 28.57 10.64 28.43 10.65C28.29 10.65 28.16 10.71 28.07 10.82C28.07 10.82 11.39 29.5 10.69 30.29C10.04 29.58 5.55002 24.7 5.55002 24.7C5.42002 24.56 5.23002 24.51 5.06002 24.55C4.88002 24.6 4.74002 24.74 4.70002 24.92L0.0100202 44.69C-0.0299798 44.85 0.0200202 45.02 0.13002 45.14C0.24002 45.27 0.41002 45.33 0.57002 45.3ZM1.16002 44.2C1.46002 42.93 5.07002 27.66 5.45002 26.06C6.45002 27.15 10.33 31.37 10.33 31.37C10.43 31.47 10.56 31.53 10.7 31.53C10.84 31.53 10.98 31.47 11.07 31.36C11.07 31.36 27.77 12.65 28.46 11.88C29.1 12.54 34.33 17.95 34.97 18.61C34.16 19.27 14.63 35.26 14.63 35.26C14.52 35.35 14.46 35.47 14.45 35.61C14.45 35.63 14.45 35.65 14.45 35.67C14.46 35.79 14.5 35.9 14.58 35.98C14.58 35.98 18.6 40.35 19.6 41.44C17.96 41.7 2.45002 44.01 1.16002 44.2Z" fill="black"/>
<path d="M6.55 16.0298C3.75 16.1998 2.82 22.2098 2.58 24.3598C1.99 29.5198 4.7 33.7098 9.18 36.1498L11.06 35.0298C11.06 35.0298 3.94 28.9098 7.18 21.1498" fill="white"/>
<path d="M6.52002 15.5301C3.51002 15.7101 2.45002 21.1101 2.08002 24.3001C1.50002 29.4201 4.00002 33.9001 8.94002 36.5901C9.10002 36.6701 9.28002 36.6701 9.44002 36.5801L11.32 35.4601C11.46 35.3801 11.55 35.2301 11.56 35.0701C11.57 34.9101 11.51 34.7501 11.39 34.6501C11.32 34.5901 4.58002 28.6601 7.65002 21.3501C7.76002 21.1001 7.64002 20.8001 7.38002 20.7001C7.13002 20.5901 6.83002 20.7101 6.73002 20.9701C6.10002 22.4601 5.85002 23.9001 5.85002 25.2501C5.85002 30.0601 9.04002 33.7201 10.25 34.9401C9.81002 35.2001 9.47002 35.4101 9.21002 35.5701C5.22002 33.3001 3.00002 29.7901 3.00002 25.7401C3.00002 25.3101 3.03002 24.8701 3.08002 24.4201C3.51002 20.6801 4.65002 16.6501 6.59002 16.5301C6.86002 16.5101 7.06002 16.2901 7.06002 16.0301C7.06002 16.0201 7.06002 16.0101 7.06002 16.0001C7.03002 15.7201 6.80002 15.5101 6.52002 15.5301Z" fill="black"/>
<path d="M9.98999 34.0301C10.57 34.0301 13.1 33.9901 13.18 34.8401C13.24 35.5101 12.4 35.7901 11.87 35.8501C12.27 36.1301 13.45 36.5401 13.55 37.0701C13.63 37.5001 13.04 38.0301 12.69 38.1701C11.84 38.5001 10.78 38.0901 10.11 37.5601C9.30999 36.9301 8.76999 36.0301 7.98999 35.4001" fill="white"/>
<path d="M10.06 33.5297C9.77999 33.5297 9.55999 33.7597 9.55999 34.0297C9.55999 34.3097 9.78999 34.5297 10.06 34.5297C12.27 34.5297 12.62 34.8497 12.67 34.9097C12.66 35.1397 12.17 35.3197 11.81 35.3597C11.59 35.3797 11.4 35.5297 11.35 35.7397C11.34 35.7797 11.34 35.8197 11.34 35.8597C11.34 36.0297 11.42 36.1797 11.57 36.2697L12.14 36.5897C12.39 36.7197 12.95 37.0097 13.04 37.1797C13.02 37.3097 12.72 37.6297 12.5 37.7197C11.85 37.9697 10.96 37.6197 10.41 37.1897L8.29999 35.0097C8.10999 34.8097 7.82999 34.8497 7.63999 35.0397C7.43999 35.2297 7.47999 35.5897 7.66999 35.7897L8.63999 36.7797L9.79999 37.9497C10.53 38.5297 11.78 39.0597 12.87 38.6297C13.33 38.4497 14.06 37.8297 14.06 37.1497C14.06 37.0897 14.06 37.0397 14.04 36.9797C13.96 36.5197 13.52 36.2197 13.06 35.9497C13.43 35.7097 13.68 35.3697 13.68 34.9097C13.68 34.8697 13.68 34.8297 13.67 34.7897C13.58 33.6697 11.79 33.5197 10.06 33.5297Z" fill="black"/>
<path d="M23.52 26.93C26.57 27.32 24.13 31.6 22.29 30.42C20.98 29.57 21.99 26.73 23.52 26.93Z" fill="white"/>
<path d="M21.38 28.0899C21.04 29.0299 21.1 30.2499 22.02 30.8399C22.68 31.2699 23.47 31.2199 24.19 30.6999C25.13 30.0299 25.65 28.7999 25.41 27.8399C25.3 27.3899 24.91 26.6099 23.59 26.4399C22.67 26.3099 21.78 26.9799 21.38 28.0899ZM22.56 29.9899C22.11 29.6999 22.12 28.9699 22.31 28.4299C22.5 27.8999 22.94 27.3599 23.45 27.4199C24.01 27.4899 24.34 27.7099 24.43 28.0799C24.57 28.6299 24.19 29.4599 23.6 29.8799C23.34 30.0699 22.95 30.2399 22.56 29.9899Z" fill="black"/>
<path d="M20.3801 1.18982C20.2801 1.02982 20.1701 0.889825 20.0501 0.799825C19.0901 0.0298249 16.4601 0.0698248 15.3301 0.0298248C11.5901 -0.100175 7.20007 0.00982475 8.06007 4.78982C8.14007 5.24983 9.28007 7.10983 9.15007 7.35983C9.65007 6.43983 9.06007 4.75982 9.77007 3.86982C10.5301 2.91982 12.4001 3.27982 13.4601 3.27982C14.5801 3.27982 17.4101 2.93982 18.4301 3.65982C19.4001 4.33982 18.9201 6.13982 19.2201 7.10983C21.1301 6.91983 21.3101 2.73982 20.3801 1.18982Z" fill="black"/>
</svg>
