<svg width="16" height="16" viewBox="0 0 16 16" fill="none" xmlns="http://www.w3.org/2000/svg">
<path d="M2.33569 2.73633H13.4166" stroke="#31383F" stroke-width="0.75" stroke-miterlimit="10"/>
<path d="M2.33569 2.73633H13.4166" stroke="#31383F" stroke-width="0.75" stroke-miterlimit="10"/>
<path d="M11.134 11.2635C12.5827 11.2635 13.7572 10.0891 13.7572 8.6403C13.7572 7.19154 12.5827 6.01709 11.134 6.01709C9.68519 6.01709 8.51074 7.19154 8.51074 8.6403C8.51074 10.0891 9.68519 11.2635 11.134 11.2635Z" stroke="#31383F" stroke-width="0.75" stroke-miterlimit="10"/>
<path d="M11.134 9.80907C11.7793 9.80907 12.3025 9.28594 12.3025 8.64062C12.3025 7.9953 11.7793 7.47217 11.134 7.47217C10.4887 7.47217 9.96558 7.9953 9.96558 8.64062C9.96558 9.28594 10.4887 9.80907 11.134 9.80907Z" stroke="#31383F" stroke-width="0.75" stroke-miterlimit="10"/>
<path d="M2.33569 4.46191H13.4166" stroke="#31383F" stroke-width="0.75" stroke-miterlimit="10"/>
<path d="M2.33569 6.37305H7.06367" stroke="#31383F" stroke-width="0.75" stroke-miterlimit="10"/>
<path d="M2.33569 8.28418H7.06367" stroke="#31383F" stroke-width="0.75" stroke-miterlimit="10"/>
<path d="M9.66382 10.8613V14.7613L11.0722 14.2197V11.1554" stroke="#31383F" stroke-width="0.75" stroke-miterlimit="10"/>
<path d="M12.4804 10.8613V14.7613L11.0798 14.2197V11.1554" stroke="#31383F" stroke-width="0.75" stroke-miterlimit="10"/>
<path d="M9.66374 12.0064H0.718506V0.786133H15.2816V12.0064H12.4804" stroke="#31383F" stroke-width="0.75" stroke-miterlimit="10"/>
</svg>
