<svg width="104" height="16" viewBox="0 0 104 16" fill="none" xmlns="http://www.w3.org/2000/svg">
<mask maskUnits="userSpaceOnUse" x="0" y="0" width="0" height="0" fill="black">
<rect fill="white" width="0" height="0"/>
</mask>
<path d="M0.292893 7.29289C-0.0976311 7.68342 -0.0976311 8.31658 0.292893 8.70711L6.65685 15.0711C7.04738 15.4616 7.68054 15.4616 8.07107 15.0711C8.46159 14.6805 8.46159 14.0474 8.07107 13.6569L2.41421 8L8.07107 2.34315C8.46159 1.95262 8.46159 1.31946 8.07107 0.928932C7.68054 0.538408 7.04738 0.538408 6.65685 0.928932L0.292893 7.29289ZM103.707 8.70711C104.098 8.31658 104.098 7.68342 103.707 7.29289L97.3431 0.928932C96.9526 0.538408 96.3195 0.538408 95.9289 0.928932C95.5384 1.31946 95.5384 1.95262 95.9289 2.34315L101.586 8L95.9289 13.6569C95.5384 14.0474 95.5384 14.6805 95.9289 15.0711C96.3195 15.4616 96.9526 15.4616 97.3431 15.0711L103.707 8.70711ZM1 9H103V7H1V9Z" fill="black" mask="url(#)"/>
</svg>
