<svg width="44" height="31" viewBox="0 0 44 31" fill="none" xmlns="http://www.w3.org/2000/svg">
<path d="M1.83105 20.6991L8.66255 15.1189L12.7744 17.2629L19.6854 11.6826" stroke="#58585B" stroke-width="2" stroke-miterlimit="10" stroke-linecap="round" stroke-linejoin="round"/>
<path d="M6.87295 23.5283H2.98486V29.182H6.87295V23.5283Z" stroke="#58585B" stroke-width="2" stroke-miterlimit="10" stroke-linecap="round" stroke-linejoin="round"/>
<path d="M10.9599 19.8574H7.07178V29.1823H10.9599V19.8574Z" stroke="#58585B" stroke-width="2" stroke-miterlimit="10" stroke-linecap="round" stroke-linejoin="round"/>
<path d="M19.1483 17.4146H15.2603V29.1869H19.1483V17.4146Z" stroke="#58585B" stroke-width="2" stroke-miterlimit="10" stroke-linecap="round" stroke-linejoin="round"/>
<path d="M15.0365 21.3896H11.1484V29.1873H15.0365V21.3896Z" stroke="#58585B" stroke-width="2" stroke-miterlimit="10" stroke-linecap="round" stroke-linejoin="round"/>
<path d="M17.7012 11.6777L20.1225 11.105L19.3469 13.3909" stroke="#58585B" stroke-width="2" stroke-miterlimit="10" stroke-linecap="round" stroke-linejoin="round"/>
<path d="M23 11.2773C23 16.4431 27.2532 20.6304 32.5002 20.6304C37.7472 20.6304 42.0003 16.4431 42.0003 11.2773C42.0003 6.11159 37.7472 1.92432 32.5002 1.92432C27.2532 1.92432 23 6.11159 23 11.2773Z" stroke="black" stroke-width="3" stroke-miterlimit="10" stroke-linecap="round" stroke-linejoin="round"/>
<path d="M27.0391 7.61719L29.8501 16.2172L32.6661 7.76108L35.0338 16.2172L37.5526 7.90977" stroke="black" stroke-width="2" stroke-miterlimit="10" stroke-linecap="round" stroke-linejoin="round"/>
<path d="M38.2926 11.6997H26.5952" stroke="black" stroke-width="2" stroke-miterlimit="10" stroke-linecap="round" stroke-linejoin="round"/>
</svg>
