<svg width="31" height="25" viewBox="0 0 31 25" fill="none" xmlns="http://www.w3.org/2000/svg">
<path d="M22.6862 24.9998H1.65C0.739655 24.9998 0 24.2499 0 23.3269V9.34532C0 8.42231 0.739655 7.67236 1.65 7.67236H22.6862C23.5966 7.67236 24.3362 8.42231 24.3362 9.34532V23.3269C24.3362 24.2499 23.5966 24.9998 22.6862 24.9998ZM3.3 21.6539H21.0362V11.0183H3.3V21.6539Z" fill="black"/>
<path d="M25.159 17.768L25.1538 14.3172L26.4262 14.0759L24.5383 3.61861L5.47276 7.15857L4.87793 3.87034L25.5728 0.0314509C26.4676 -0.136369 27.3262 0.466735 27.4917 1.37401L29.9745 15.1248C30.14 16.0321 29.5452 16.9026 28.6503 17.0705L25.159 17.768Z" fill="black"/>
<path d="M7.66035 14.6631H4.36035V17.7678H7.66035V14.6631Z" fill="black"/>
<path d="M11.0172 18.9639H4.36035V20.1596H11.0172V18.9639Z" fill="black"/>
</svg>
