<svg width="35" height="27" viewBox="0 0 35 27" fill="none" xmlns="http://www.w3.org/2000/svg">
<path d="M8.15311 13.9494C7.97351 13.9494 7.82471 13.8051 7.82471 13.6196V8.75509C7.82471 8.56958 7.97351 8.42529 8.15311 8.42529C8.3327 8.42529 8.48151 8.57473 8.48151 8.75509V13.6196C8.47638 13.7999 8.3327 13.9494 8.15311 13.9494Z" fill="#606060"/>
<path d="M12.0941 13.9491H8.22C8.04041 13.9491 7.8916 13.8049 7.8916 13.6193C7.8916 13.439 8.04041 13.2896 8.22 13.2896H12.0941C12.2737 13.2896 12.4225 13.439 12.4225 13.6193C12.4225 13.7997 12.2737 13.9491 12.0941 13.9491Z" fill="#606060"/>
<path d="M8.64097 7.07477C8.64097 7.34788 8.42032 7.56946 8.14836 7.56946C7.87641 7.56946 7.65576 7.34788 7.65576 7.07477C7.65576 6.80166 7.87641 6.58008 8.14836 6.58008C8.42032 6.58008 8.64097 6.80166 8.64097 7.07477Z" fill="#616161"/>
<path d="M8.64146 19.5089C8.64146 19.782 8.42081 20.0035 8.14885 20.0035C7.8769 20.0035 7.65625 19.782 7.65625 19.5089C7.65625 19.2357 7.8769 19.0142 8.14885 19.0142C8.42081 19.0142 8.64146 19.2357 8.64146 19.5089Z" fill="#616161"/>
<path d="M14.3417 12.7949C14.0698 12.7949 13.8491 13.0165 13.8491 13.2896C13.8491 13.5627 14.0698 13.7843 14.3417 13.7843C14.6137 13.7843 14.8343 13.5627 14.8343 13.2896C14.8343 13.0217 14.6137 12.7949 14.3417 12.7949Z" fill="#616161"/>
<path d="M1.95989 12.7949C1.68793 12.7949 1.46729 13.0165 1.46729 13.2896C1.46729 13.5627 1.68793 13.7843 1.95989 13.7843C2.23185 13.7843 2.45249 13.5627 2.45249 13.2896C2.45249 13.0217 2.23185 12.7949 1.95989 12.7949Z" fill="#616161"/>
<path d="M8.99488 13.47C8.99488 13.872 8.66648 14.2017 8.26624 14.2017C7.86087 14.2017 7.5376 13.872 7.5376 13.47C7.5376 13.0629 7.866 12.7383 8.26624 12.7383C8.66648 12.7383 8.99488 13.0629 8.99488 13.47Z" fill="#616161"/>
<path d="M8.26649 21.5191C3.70991 21.5191 0 17.7935 0 13.2176C0 8.64167 3.70991 4.91602 8.26649 4.91602C12.8231 4.91602 16.533 8.64167 16.533 13.2176C16.533 17.7935 12.8231 21.5191 8.26649 21.5191ZM8.26649 5.92086C4.25896 5.92086 1.0006 9.19304 1.0006 13.2176C1.0006 17.2421 4.25896 20.5143 8.26649 20.5143C12.274 20.5143 15.5324 17.2421 15.5324 13.2176C15.5324 9.19304 12.274 5.92086 8.26649 5.92086Z" fill="#606060"/>
<path d="M11.3965 9.81655C11.3965 4.39555 15.7735 0 21.1716 0C26.5697 0 30.9415 4.39555 30.9467 9.81655C30.9467 15.2376 26.5697 19.6279 21.1716 19.6331C15.7735 19.6279 11.3965 15.2376 11.3965 9.81655ZM15.0859 9.81655C15.091 13.1918 17.8106 15.9229 21.1716 15.9281C24.5326 15.9229 27.2521 13.1918 27.2573 9.81655C27.2521 6.44131 24.5326 3.71019 21.1716 3.70504C17.8106 3.71019 15.091 6.44131 15.0859 9.81655Z" fill="black"/>
<path d="M31.6859 25.9251L25.0461 17.0361C24.4355 16.2168 24.5997 15.0573 25.4155 14.4441C26.2314 13.8309 27.3859 13.9958 27.9966 14.8151L34.6313 23.7041C35.2419 24.5235 35.0777 25.6829 34.2618 26.2961C33.9283 26.5486 33.5435 26.6671 33.1586 26.6671C32.5993 26.6671 32.0451 26.4095 31.6859 25.9251Z" fill="black"/>
<path d="M21.2689 16.1081C24.6753 16.1081 27.4367 13.335 27.4367 9.91417C27.4367 6.49335 24.6753 3.72021 21.2689 3.72021C17.8625 3.72021 15.1011 6.49335 15.1011 9.91417C15.1011 13.335 17.8625 16.1081 21.2689 16.1081Z" fill="white"/>
<path d="M25.0201 10.2544H20.8638V6.10107" fill="white"/>
<path d="M25.0201 10.2544H20.8638V6.10107" stroke="#1D1D1B" stroke-width="4" stroke-miterlimit="10" stroke-linecap="round" stroke-linejoin="round"/>
</svg>
