<svg width="28" height="28" viewBox="0 0 28 28" fill="none" xmlns="http://www.w3.org/2000/svg">
<path d="M22.6245 10.0304C22.417 9.23226 21.8075 8.60153 21.034 8.38934C19.6283 8 14 8 14 8C14 8 8.3717 8 6.96792 8.38739C6.19434 8.60153 5.58302 9.23031 5.37736 10.0285C5 11.4787 5 14.5 5 14.5C5 14.5 5 17.5213 5.37547 18.9696C5.58302 19.7677 6.19245 20.3985 6.96604 20.6107C8.36981 20.9981 13.9981 20.9981 13.9981 20.9981C13.9981 20.9981 19.6264 20.9981 21.0302 20.6107C21.8038 20.3965 22.4151 19.7677 22.6208 18.9696C22.9962 17.5213 22.9962 14.5 22.9962 14.5C22.9962 14.5 23 11.4787 22.6245 10.0304ZM12.2 17.2857V11.7143L16.8755 14.5L12.2 17.2857Z" fill="white"/>
</svg>
