<svg width="28" height="28" viewBox="0 0 28 28" fill="none" xmlns="http://www.w3.org/2000/svg">
<path d="M13.9998 6.34772C16.4936 6.34772 16.7889 6.35866 17.7696 6.40241C18.6811 6.44251 19.1733 6.59564 19.5014 6.72324C19.9353 6.89095 20.2488 7.09512 20.5733 7.4196C20.9014 7.74772 21.1019 8.05762 21.2696 8.49147C21.3972 8.8196 21.5504 9.31543 21.5905 10.2232C21.6342 11.2076 21.6451 11.5029 21.6451 13.993C21.6451 16.4868 21.6342 16.7821 21.5905 17.7628C21.5504 18.6743 21.3972 19.1665 21.2696 19.4946C21.1019 19.9285 20.8978 20.242 20.5733 20.5665C20.2451 20.8946 19.9353 21.0951 19.5014 21.2628C19.1733 21.3904 18.6774 21.5436 17.7696 21.5837C16.7853 21.6274 16.4899 21.6383 13.9998 21.6383C11.5061 21.6383 11.2108 21.6274 10.23 21.5837C9.31859 21.5436 8.8264 21.3904 8.49827 21.2628C8.06442 21.0951 7.75088 20.891 7.4264 20.5665C7.09827 20.2383 6.89775 19.9285 6.73005 19.4946C6.60244 19.1665 6.44932 18.6706 6.40921 17.7628C6.36546 16.7785 6.35452 16.4831 6.35452 13.993C6.35452 11.4993 6.36546 11.204 6.40921 10.2232C6.44932 9.31178 6.60244 8.8196 6.73005 8.49147C6.89775 8.05762 7.10192 7.74408 7.4264 7.4196C7.75452 7.09147 8.06442 6.89095 8.49827 6.72324C8.8264 6.59564 9.32223 6.44251 10.23 6.40241C11.2108 6.35866 11.5061 6.34772 13.9998 6.34772ZM13.9998 4.66699C11.466 4.66699 11.1488 4.67793 10.1535 4.72168C9.16182 4.76543 8.48005 4.92585 7.88942 5.15553C7.27327 5.39616 6.75192 5.71335 6.23421 6.2347C5.71286 6.75241 5.39567 7.27376 5.15505 7.88626C4.92536 8.48053 4.76494 9.15866 4.72119 10.1503C4.67744 11.1493 4.6665 11.4665 4.6665 14.0003C4.6665 16.5342 4.67744 16.8514 4.72119 17.8467C4.76494 18.8383 4.92536 19.5201 5.15505 20.1107C5.39567 20.7269 5.71286 21.2482 6.23421 21.766C6.75192 22.2837 7.27327 22.6045 7.88577 22.8415C8.48005 23.0712 9.15817 23.2316 10.1498 23.2753C11.1451 23.3191 11.4623 23.33 13.9962 23.33C16.53 23.33 16.8472 23.3191 17.8425 23.2753C18.8342 23.2316 19.516 23.0712 20.1066 22.8415C20.7191 22.6045 21.2405 22.2837 21.7582 21.766C22.2759 21.2482 22.5967 20.7269 22.8337 20.1144C23.0634 19.5201 23.2238 18.842 23.2675 17.8503C23.3113 16.855 23.3222 16.5378 23.3222 14.004C23.3222 11.4701 23.3113 11.1529 23.2675 10.1576C23.2238 9.16595 23.0634 8.48418 22.8337 7.89355C22.604 7.27376 22.2868 6.75241 21.7655 6.2347C21.2478 5.71699 20.7264 5.39616 20.1139 5.15918C19.5196 4.92949 18.8415 4.76908 17.8498 4.72533C16.8509 4.67793 16.5337 4.66699 13.9998 4.66699Z" fill="white"/>
<path d="M13.9998 9.20605C11.353 9.20605 9.20557 11.3535 9.20557 14.0003C9.20557 16.6472 11.353 18.7946 13.9998 18.7946C16.6467 18.7946 18.7941 16.6472 18.7941 14.0003C18.7941 11.3535 16.6467 9.20605 13.9998 9.20605ZM13.9998 17.1102C12.2826 17.1102 10.8899 15.7175 10.8899 14.0003C10.8899 12.2831 12.2826 10.8904 13.9998 10.8904C15.717 10.8904 17.1097 12.2831 17.1097 14.0003C17.1097 15.7175 15.717 17.1102 13.9998 17.1102Z" fill="white"/>
<path d="M20.1033 9.01576C20.1033 9.63555 19.6002 10.135 18.984 10.135C18.3642 10.135 17.8647 9.6319 17.8647 9.01576C17.8647 8.39596 18.3679 7.89648 18.984 7.89648C19.6002 7.89648 20.1033 8.39961 20.1033 9.01576Z" fill="white"/>
</svg>
