<svg width="26" height="20" viewBox="0 0 26 20" fill="none" xmlns="http://www.w3.org/2000/svg">
<path d="M18.4998 3.5V1.5C18.4998 1.22375 18.3058 1 18.0664 1H5.93324C5.69383 1 5.49992 1.22375 5.49992 1.5V9C5.16409 9.13562 4.83855 9.3025 4.52601 9.5H1V10.5H4.19993V18H1V19H15.4199C15.8126 19 16.1982 18.8769 16.5346 18.6437L23.983 13.4875C24.9748 12.8013 25.296 11.3175 24.7018 10.1737C24.3237 9.44625 23.6417 9.00062 22.9062 9.00062H22.8146C22.4712 9.00062 22.1327 9.09813 21.8299 9.28438L18.4998 11.3337V4.5V3.5ZM11.1332 2H12.8665V4H11.1332V2ZM6.36657 2H10.2665V4.5C10.2665 4.77625 10.4604 5 10.6999 5H13.2998C13.5392 5 13.7331 4.77625 13.7331 4.5V2H17.6331V11.8663L16.9235 12.3025C17.1884 11.0981 16.5568 9.87375 15.5125 9.56875C15.356 9.52313 15.1951 9.5 15.0331 9.5H10.8131C9.4562 8.64625 7.88159 8.37188 6.36657 8.72375V2ZM23.5372 12.6294L16.0888 17.7856C15.8868 17.9256 15.6555 17.9994 15.4199 17.9994H5.06659V10.3C6.77715 9.29063 8.81271 9.34188 10.4832 10.4362C10.5493 10.4787 10.624 10.5013 10.6999 10.5H15.0331C15.6317 10.5 16.1164 11.0594 16.1164 11.75C16.1164 12.4406 15.6317 13 15.0331 13H11.1332C10.8938 13 10.6999 13.2238 10.6999 13.5C10.6999 13.7762 10.8938 14 11.1332 14H15.8998C15.9707 14 16.0412 13.98 16.104 13.9412L22.2377 10.1663C22.4154 10.0569 22.6137 10 22.8152 10H22.9067C23.5843 10 24.1336 10.6337 24.1336 11.4156C24.133 11.9131 23.9071 12.3738 23.5372 12.6294Z" fill="#31383F" stroke="#31383F" stroke-width="0.75"/>
</svg>
