<svg width="22" height="20" viewBox="0 0 22 20" fill="none" xmlns="http://www.w3.org/2000/svg">
<path fill-rule="evenodd" clip-rule="evenodd" d="M11.4762 7.61905H13.4603V4.7619H16.4365V2.85714H13.4603V0H11.4762V2.85714H8.5V4.7619H11.4762V7.61905ZM4.97818 18.095C4.97818 17.0474 5.86111 16.1902 6.95238 16.1902C8.04365 16.1902 8.93651 17.0474 8.93651 18.095C8.93651 19.1426 8.04365 19.9998 6.95238 19.9998C5.86111 19.9998 4.97818 19.1426 4.97818 18.095ZM15.8988 18.095C15.8988 17.0474 16.7817 16.1902 17.873 16.1902C18.9643 16.1902 19.8571 17.0474 19.8571 18.095C19.8571 19.1426 18.9643 19.9998 17.873 19.9998C16.7817 19.9998 15.8988 19.1426 15.8988 18.095ZM7.15079 12.9807L7.12103 13.095C7.12103 13.2283 7.24008 13.3331 7.36905 13.3331H19.8571V15.2379H6.95238C5.86111 15.2379 4.96825 14.3807 4.96825 13.3331C4.96825 12.9998 5.05754 12.6855 5.21627 12.4188L6.55556 10.0855L2.98413 2.85691H0V0.952148H4.24405L5.17659 2.85691L6.11905 4.76167L8.34127 9.26643L8.47024 9.52358H16.4345L19.1726 4.76167L20.2639 2.85691H20.2738L22 3.7712L18.1706 10.4474C17.8333 11.0379 17.1786 11.4283 16.4345 11.4283H8.04365L7.15079 12.9807Z" fill="#31383F"/>
</svg>
