<svg width="28" height="28" viewBox="0 0 28 28" fill="none" xmlns="http://www.w3.org/2000/svg">
<path d="M6.07007 8.03085H21.5834" stroke="#31383F" stroke-width="0.75" stroke-miterlimit="10"/>
<path d="M6.07007 8.03085H21.5834" stroke="#31383F" stroke-width="0.75" stroke-miterlimit="10"/>
<path d="M18.3876 19.9692C20.4159 19.9692 22.0601 18.325 22.0601 16.2967C22.0601 14.2684 20.4159 12.6242 18.3876 12.6242C16.3593 12.6242 14.7151 14.2684 14.7151 16.2967C14.7151 18.325 16.3593 19.9692 18.3876 19.9692Z" stroke="#31383F" stroke-width="0.75" stroke-miterlimit="10"/>
<path d="M18.3875 17.9325C19.291 17.9325 20.0234 17.2001 20.0234 16.2967C20.0234 15.3932 19.291 14.6609 18.3875 14.6609C17.4841 14.6609 16.7517 15.3932 16.7517 16.2967C16.7517 17.2001 17.4841 17.9325 18.3875 17.9325Z" stroke="#31383F" stroke-width="0.75" stroke-miterlimit="10"/>
<path d="M6.07007 10.4467H21.5834" stroke="#31383F" stroke-width="0.75" stroke-miterlimit="10"/>
<path d="M6.07007 13.1224H12.6892" stroke="#31383F" stroke-width="0.75" stroke-miterlimit="10"/>
<path d="M6.07007 15.7982H12.6892" stroke="#31383F" stroke-width="0.75" stroke-miterlimit="10"/>
<path d="M16.3293 19.4059V24.8659L18.301 24.1075V19.8175" stroke="#31383F" stroke-width="0.75" stroke-miterlimit="10"/>
<path d="M20.2726 19.4059V24.8659L18.3118 24.1075V19.8175" stroke="#31383F" stroke-width="0.75" stroke-miterlimit="10"/>
<path d="M16.3292 21.0091H3.80591V5.30078H24.1942V21.0091H20.2726" stroke="#31383F" stroke-width="0.75" stroke-miterlimit="10"/>
</svg>
