<svg width="52" height="52" viewBox="0 0 52 52" fill="none" xmlns="http://www.w3.org/2000/svg">
<path d="M25.9999 4.3335C14.0399 4.3335 4.33325 14.0402 4.33325 26.0002C4.33325 37.9602 14.0399 47.6668 25.9999 47.6668C37.9599 47.6668 47.6666 37.9602 47.6666 26.0002C47.6666 14.0402 37.9599 4.3335 25.9999 4.3335ZM25.9999 10.8335C29.5966 10.8335 32.4999 13.7368 32.4999 17.3335C32.4999 20.9302 29.5966 23.8335 25.9999 23.8335C22.4033 23.8335 19.4999 20.9302 19.4999 17.3335C19.4999 13.7368 22.4033 10.8335 25.9999 10.8335ZM25.9999 41.6002C20.5833 41.6002 15.7949 38.8268 12.9999 34.6235C13.0649 30.3118 21.6666 27.9502 25.9999 27.9502C30.3116 27.9502 38.9349 30.3118 38.9999 34.6235C36.2049 38.8268 31.4166 41.6002 25.9999 41.6002Z" fill="#31383F"/>
</svg>
