<svg width="24" height="24" viewBox="0 0 24 24" fill="none" xmlns="http://www.w3.org/2000/svg">
<g opacity="0.75">
<path d="M14.9167 13.6667H14.2583L14.025 13.4417C14.8417 12.4917 15.3333 11.2583 15.3333 9.91667C15.3333 6.925 12.9083 4.5 9.91667 4.5C6.925 4.5 4.5 6.925 4.5 9.91667C4.5 12.9083 6.925 15.3333 9.91667 15.3333C11.2583 15.3333 12.4917 14.8417 13.4417 14.025L13.6667 14.2583V14.9167L17.8333 19.075L19.075 17.8333L14.9167 13.6667ZM9.91667 13.6667C7.84167 13.6667 6.16667 11.9917 6.16667 9.91667C6.16667 7.84167 7.84167 6.16667 9.91667 6.16667C11.9917 6.16667 13.6667 7.84167 13.6667 9.91667C13.6667 11.9917 11.9917 13.6667 9.91667 13.6667Z" fill="#31383F"/>
</g>
</svg>
