<svg width="24" height="24" viewBox="0 0 24 24" fill="none" xmlns="http://www.w3.org/2000/svg">
<g opacity="0.5">
<path d="M12.0001 14.668C13.3834 14.668 14.4917 13.5513 14.4917 12.168L14.5001 7.16797C14.5001 5.78464 13.3834 4.66797 12.0001 4.66797C10.6167 4.66797 9.50008 5.78464 9.50008 7.16797V12.168C9.50008 13.5513 10.6167 14.668 12.0001 14.668ZM16.4167 12.168C16.4167 14.668 14.3001 16.418 12.0001 16.418C9.70008 16.418 7.58341 14.668 7.58341 12.168H6.16675C6.16675 15.0096 8.43341 17.3596 11.1667 17.768V20.5013H12.8334V17.768C15.5667 17.368 17.8334 15.018 17.8334 12.168H16.4167Z" fill="#31383F"/>
</g>
</svg>
