<svg width="200" height="72" viewBox="0 0 200 72" fill="none" xmlns="http://www.w3.org/2000/svg">
<path d="M35.22 29.1198C35.12 29.1198 35.03 29.1598 34.97 29.2298L34.95 29.2098L29.85 33.7898L20.43 26.0798L20.41 26.0998C20.36 26.0698 20.3 26.0498 20.24 26.0498C20.05 26.0498 19.9 26.1998 19.9 26.3998C19.9 26.4798 19.93 26.5498 19.97 26.6098L19.96 26.6198L28.94 34.8598C29.27 35.1498 29.64 35.3198 29.93 35.3198C30.05 35.3198 30.14 35.2898 30.21 35.2498C30.34 35.1998 30.46 35.1298 30.57 35.0298L35.4 29.7598C35.5 29.6998 35.56 29.5898 35.56 29.4698C35.56 29.2798 35.41 29.1198 35.22 29.1198Z" fill="black"/>
<path d="M45.6 33.9999C45.6 25.1099 38.37 17.8799 29.48 17.8799C20.59 17.8799 13.36 25.1099 13.36 33.9999C13.36 42.8899 20.59 50.1199 29.48 50.1199C38.37 50.1199 45.6 42.8899 45.6 33.9999ZM29.48 20.0599C37.16 20.0599 43.41 26.3099 43.41 33.9999C43.41 41.6799 37.16 47.9299 29.48 47.9299C21.8 47.9299 15.54 41.6799 15.54 33.9999C15.54 26.3199 21.79 20.0599 29.48 20.0599Z" fill="black"/>
<path d="M53.57 14H29.48C18.45 14 9.47998 22.97 9.47998 34V34.08C9.50998 34.58 9.85998 38.98 11.41 41.17C11.61 41.46 11.95 41.63 12.3 41.63C12.53 41.63 12.74 41.56 12.93 41.43C13.42 41.08 13.54 40.4 13.19 39.91C12.03 38.27 11.69 34.33 11.66 33.97C11.68 24.17 19.67 16.2 29.48 16.2H53.57C54.17 16.2 54.66 15.71 54.66 15.11C54.66 14.49 54.17 14 53.57 14Z" fill="black"/>
<path d="M47.39 28.2305C47.2 28.2305 47 28.2805 46.84 28.3805C46.32 28.6805 46.15 29.3605 46.45 29.8705C47.39 31.4705 47.3 33.9205 47.29 33.9505V33.9905C47.29 43.8105 39.3 51.8105 29.47 51.8105H5.09C4.49 51.8105 4 52.3005 4 52.9005C4 53.5005 4.49 54.0005 5.09 54.0005H29.48C40.5 54.0005 49.47 45.0405 49.48 34.0205C49.49 33.6505 49.56 30.8505 48.34 28.7705C48.14 28.4405 47.78 28.2305 47.39 28.2305Z" fill="black"/>
<path d="M73.8 46.4904H70.23V36.0404H67.24V46.4904H63.67V24.6104H67.24V32.8304H70.23V24.6104H73.8V46.4904Z" fill="black"/>
<path d="M88.34 40.2596H84.77V24.6396H88.34V40.2596Z" fill="black"/>
<path d="M109.64 42.9798C109.64 44.3198 109.08 45.3298 107.95 45.9998C107.04 46.5298 105.87 46.7998 104.45 46.7998C103.03 46.7998 101.87 46.5298 100.98 45.9998C99.8799 45.3198 99.3199 44.3098 99.3199 42.9798V37.8498H102.89V42.6898C102.89 43.4798 103.42 43.8698 104.48 43.8698C105.54 43.8698 106.07 43.4798 106.07 42.6898V40.4598C106.07 39.6098 105.49 38.5898 104.32 37.3998C103.24 36.3598 102.15 35.3198 101.07 34.2798C99.8999 33.0498 99.3199 31.9398 99.3199 30.9698V27.8798C99.3199 26.5398 99.8699 25.5398 100.98 24.8898C101.87 24.3598 103.03 24.0898 104.45 24.0898C105.87 24.0898 107.04 24.3598 107.95 24.8898C109.08 25.5498 109.64 26.5498 109.64 27.8798V32.6598H106.07V28.1398C106.07 27.4198 105.54 27.0598 104.48 27.0598C103.42 27.0598 102.89 27.4198 102.89 28.1398V30.7798C102.89 31.2498 104.01 32.5698 106.27 34.7398C108.52 36.9198 109.64 38.3898 109.64 39.1498V42.9798Z" fill="black"/>
<path d="M124.18 46.5198H120.61V30.8398H124.18V46.5198Z" fill="black"/>
<path d="M145.45 46.3896H142.68C142.68 46.2196 142.66 45.9396 142.61 45.5596C141.8 46.3896 140.84 46.7996 139.71 46.7996C138.52 46.7996 137.51 46.5196 136.68 45.9696C135.66 45.2896 135.15 44.2896 135.15 42.9796V27.8896C135.15 26.5696 135.69 25.5796 136.77 24.8996C137.66 24.3696 138.82 24.0996 140.24 24.0996C141.66 24.0996 142.83 24.3696 143.74 24.8996C144.87 25.5796 145.43 26.5796 145.43 27.8896V32.6996H141.86V28.1496C141.86 27.4296 141.33 27.0696 140.27 27.0696C139.23 27.0696 138.71 27.4296 138.71 28.1496V42.6996C138.71 43.4896 139.23 43.8796 140.27 43.8796C141.33 43.8796 141.86 43.4896 141.86 42.6996V38.2696H140.75V35.3096H145.43V46.3896H145.45Z" fill="black"/>
<path d="M168.24 46.4904H164.83L164.03 40.6604H160.56L159.76 46.4904H156.42L159.32 24.6104H165.28L168.24 46.4904ZM163.59 37.4404L162.54 29.1004H162.09L160.98 37.4404H163.59Z" fill="black"/>
<path d="M191.38 46.4904H185.46L182.79 29.4904L182.5 29.5204V46.4904H179.22V24.6104H185.08L187.82 41.4604L188.11 41.4304V24.6104H191.39V46.4904H191.38Z" fill="black"/>
<path d="M88.35 42.7305H84.78V46.4905H88.35V42.7305Z" fill="black"/>
<path d="M124.18 24.25H120.61V28.01H124.18V24.25Z" fill="black"/>
</svg>
