<svg width="60" height="60" viewBox="0 0 60 60" fill="none" xmlns="http://www.w3.org/2000/svg">
<path d="M41.9505 15.2624V2H18.0535V15.2624C9.90083 21.839 8.6287 33.7629 15.2151 41.9034C16.0563 42.9483 17.007 43.8976 18.0535 44.7376V58H41.9505V44.7376C50.1031 38.161 51.3753 26.2371 44.7889 18.0966C43.9476 17.0517 42.9969 16.1024 41.9505 15.2624ZM20.7892 4.73171H39.2147V13.4185C33.4833 10.2361 26.5207 10.2361 20.7892 13.4185V4.73171ZM39.2147 55.2683H20.7892V46.5883C26.5207 49.7707 33.4833 49.7707 39.2147 46.5883V55.2683ZM30.002 46.24C21.0218 46.24 13.7378 38.9668 13.7378 30C13.7378 21.0332 21.0218 13.76 30.002 13.76C38.9822 13.76 46.2662 21.0332 46.2662 30C46.2525 38.9668 38.9822 46.2263 30.002 46.24Z" fill="#31383F"/>
<path d="M31.3705 20.0769H28.6348V31.3657H38.3399V28.634H31.3705V20.0769Z" fill="#31383F"/>
</svg>
