<svg width="129" height="27" viewBox="0 0 129 27" fill="none" xmlns="http://www.w3.org/2000/svg">
<path d="M20.7174 10.6345C20.6541 10.6345 20.5909 10.6667 20.5593 10.7096L20.5487 10.6989L17.3235 13.6525L11.3685 8.67969L11.358 8.70117C11.3264 8.67969 11.2947 8.66895 11.2526 8.66895C11.1366 8.66895 11.0312 8.76561 11.0312 8.8945C11.0312 8.9482 11.0523 8.99116 11.0734 9.02338V9.03412L16.7544 14.3399C16.9652 14.5225 17.1971 14.6406 17.3868 14.6406C17.4606 14.6406 17.5238 14.6192 17.566 14.5977C17.6503 14.5655 17.7241 14.5225 17.7978 14.4581L20.8544 11.0641C20.9176 11.0211 20.9598 10.9567 20.9598 10.8815C20.9387 10.7419 20.8438 10.6345 20.7174 10.6345Z" fill="#B08C71"/>
<path d="M27.2837 13.781C27.2837 8.05638 22.7094 3.39502 17.0917 3.39502C11.474 3.39502 6.89966 8.05638 6.89966 13.781C6.89966 19.5057 11.474 24.1671 17.0917 24.1671C22.7094 24.1671 27.2837 19.5057 27.2837 13.781ZM17.0917 4.80202C21.9506 4.80202 25.903 8.82969 25.903 13.781C25.903 18.7324 21.9506 22.7601 17.0917 22.7601C12.2328 22.7601 8.28038 18.7324 8.28038 13.781C8.28038 8.82969 12.2328 4.80202 17.0917 4.80202Z" fill="#B08C71"/>
<path d="M32.323 0.892578H17.0929C10.1155 0.892578 4.44507 6.67095 4.44507 13.7811V13.8348C4.46615 14.1571 4.68748 16.9925 5.66769 18.3995C5.79417 18.5821 6.00497 18.7003 6.2263 18.7003C6.37386 18.7003 6.51088 18.6573 6.62682 18.5714C6.93247 18.3458 7.00625 17.9055 6.79545 17.594C6.05766 16.5414 5.84687 13.9959 5.82579 13.7597C5.83633 7.43352 10.8849 2.29958 17.0929 2.29958H32.3335C32.7129 2.29958 33.0291 1.98811 33.0291 1.60145C33.0186 1.20405 32.7024 0.892578 32.323 0.892578Z" fill="#B08C71"/>
<path d="M28.4118 10.0649C28.2853 10.0649 28.1694 10.0972 28.064 10.1616C27.7372 10.3549 27.6213 10.7953 27.8216 11.1282C28.4118 12.1593 28.3591 13.7382 28.3591 13.7597V13.7811C28.3591 20.1073 23.3 25.2627 17.092 25.2627H1.67219C1.28222 25.2627 0.976562 25.5742 0.976562 25.9608C0.976562 26.3475 1.28222 26.6697 1.67219 26.6697H17.092C24.0588 26.6697 29.7293 20.8913 29.7398 13.7919C29.7503 13.5556 29.7925 11.7512 29.0126 10.4086C28.8861 10.1938 28.6647 10.0649 28.4118 10.0649Z" fill="#B08C71"/>
<path d="M48.5453 21.8254H46.1146V15.0911H44.0701V21.8254H41.6394V7.72314H44.0701V13.0182H46.1146V7.72314H48.5453V21.8254Z" fill="#B08C71"/>
<path d="M58.4602 17.8197H56.0295V7.74512H58.4602V17.8197Z" fill="#B08C71"/>
<path d="M72.9657 19.5698C72.9657 20.4291 72.5796 21.0842 71.8185 21.5139C71.1938 21.8575 70.3988 22.0294 69.4333 22.0294C68.4678 22.0294 67.6728 21.8575 67.0708 21.5139C66.3211 21.0735 65.9463 20.4291 65.9463 19.5698V16.2618H68.377V19.3765C68.377 19.8813 68.7404 20.1391 69.456 20.1391C70.1829 20.1391 70.5464 19.8813 70.5464 19.3765V17.9373C70.5464 17.3895 70.1489 16.7343 69.3538 15.9718C68.6155 15.3059 67.8772 14.6292 67.1389 13.9633C66.3438 13.1685 65.9463 12.4596 65.9463 11.8259V9.83896C65.9463 8.97973 66.3211 8.3353 67.0708 7.90568C67.6841 7.56198 68.4678 7.39014 69.4333 7.39014C70.3988 7.39014 71.1938 7.56198 71.8185 7.90568C72.5909 8.32456 72.9657 8.96898 72.9657 9.83896V12.9215H70.5351V10.0108C70.5351 9.54897 70.1716 9.31268 69.4447 9.31268C68.7177 9.31268 68.3656 9.54897 68.3656 10.0108V11.7185C68.3656 12.0193 69.1266 12.8678 70.6714 14.2748C72.2047 15.6818 72.9657 16.6269 72.9657 17.121V19.5698Z" fill="#B08C71"/>
<path d="M82.8811 21.848H80.4504V11.7412H82.8811V21.848Z" fill="#B08C71"/>
<path d="M97.3746 21.7609H95.4777C95.4777 21.6535 95.4664 21.4709 95.4323 21.2239C94.8871 21.7609 94.2283 22.0294 93.4559 22.0294C92.6495 22.0294 91.9566 21.8468 91.3887 21.4924C90.6959 21.052 90.3438 20.4076 90.3438 19.5591V9.83896C90.3438 8.99047 90.7072 8.34604 91.4455 7.90568C92.0589 7.56198 92.8426 7.39014 93.808 7.39014C94.7735 7.39014 95.5686 7.56198 96.1933 7.90568C96.9657 8.34604 97.3405 8.99047 97.3405 9.83896V12.943H94.9098V10.0108C94.9098 9.54897 94.5463 9.31268 93.8308 9.31268C93.1265 9.31268 92.7631 9.54897 92.7631 10.0108V19.3872C92.7631 19.892 93.1152 20.1498 93.8308 20.1498C94.5577 20.1498 94.9098 19.892 94.9098 19.3872V16.5303H94.1488V14.6185H97.3405V21.7609H97.3746Z" fill="#B08C71"/>
<path d="M112.902 21.8254H110.585L110.04 18.0662H107.677L107.132 21.8254H104.849L106.825 7.72314H110.88L112.902 21.8254ZM109.733 15.9933L109.017 10.6123H108.711L107.95 15.9933H109.733Z" fill="#B08C71"/>
<path d="M128.679 21.8254H124.647L122.829 10.8701L122.636 10.8916V21.8254H120.399V7.72314H124.397L126.26 18.5818L126.453 18.5603V7.72314H128.69V21.8254H128.679Z" fill="#B08C71"/>
<path d="M58.4602 19.4097H56.0295V21.8263H58.4602V19.4097Z" fill="#B08C71"/>
<path d="M82.8811 7.49854H80.4504V9.91514H82.8811V7.49854Z" fill="#B08C71"/>
</svg>
